<svg width="28" height="28" viewBox="0 0 28 28" fill="none" xmlns="http://www.w3.org/2000/svg">
<path fill-rule="evenodd" clip-rule="evenodd" d="M12.3666 10.2083C12.3666 7.69537 14.4037 5.65826 16.9166 5.65826C19.4295 5.65826 21.4666 7.69537 21.4666 10.2083C21.4666 12.7212 19.4295 14.7583 16.9166 14.7583C14.4037 14.7583 12.3666 12.7212 12.3666 10.2083ZM16.9166 7.75826C15.5635 7.75826 14.4666 8.85517 14.4666 10.2083C14.4666 11.5614 15.5635 12.6583 16.9166 12.6583C18.2697 12.6583 19.3666 11.5614 19.3666 10.2083C19.3666 8.85517 18.2697 7.75826 16.9166 7.75826ZM8.73668 11.07C9.14673 10.6599 9.81155 10.6599 10.2216 11.07C10.6317 11.48 10.6317 12.1448 10.2216 12.5549L5.8466 16.9299C5.43655 17.3399 4.77173 17.3399 4.36168 16.9299L2.17418 14.7424C1.76413 14.3323 1.76413 13.6675 2.17418 13.2575C2.58423 12.8474 3.24905 12.8474 3.6591 13.2575L5.10414 14.7025L8.73668 11.07ZM9.1583 21.4772C9.1583 18.2175 11.8008 15.5749 15.0606 15.5749H18.7727C22.0324 15.5749 24.675 18.2175 24.675 21.4772V21.7954C24.675 22.4192 24.1693 22.9249 23.5454 22.9249C22.9216 22.9249 22.4159 22.4192 22.4159 21.7954V21.4772C22.4159 19.4651 20.7848 17.834 18.7727 17.834H15.0606C13.0485 17.834 11.4174 19.4651 11.4174 21.4772V21.7954C11.4174 22.4192 10.9117 22.9249 10.2879 22.9249C9.66402 22.9249 9.1583 22.4192 9.1583 21.7954V21.4772Z" fill="black"/>
</svg>
