<svg width="28" height="28" viewBox="0 0 28 28" fill="none" xmlns="http://www.w3.org/2000/svg">
<path d="M14.1684 25.0833C10.7954 25.0611 8.20235 23.9705 6.45933 21.8425C4.91074 19.9473 4.11044 17.3117 4.08331 14.0088V13.9933C4.11044 10.6883 4.91074 8.05486 6.46159 6.15961C8.20235 4.02939 10.7977 2.93879 14.1684 2.91663H14.182C16.7682 2.93436 18.9318 3.58606 20.6115 4.85399C22.1917 6.04656 23.304 7.74453 23.9166 9.90356L21.995 10.4289C20.9551 6.77141 18.3236 4.90276 14.1729 4.87394C11.4329 4.89389 9.35984 5.73844 8.01245 7.38321C6.75323 8.92379 6.10214 11.1493 6.07727 14C6.10214 16.8506 6.75323 19.0761 8.01471 20.6167C9.3621 22.2637 11.4352 23.1082 14.1752 23.126C16.6462 23.1082 18.2807 22.543 19.6394 21.2374C21.1902 19.7478 21.1631 17.919 20.6657 16.8063C20.3741 16.1501 19.8428 15.6048 19.1262 15.1903C18.9453 16.4383 18.5406 17.4491 17.9167 18.2116C17.0825 19.2291 15.9001 19.7855 14.4035 19.8653C13.2709 19.9251 12.179 19.6635 11.3335 19.1249C10.332 18.4887 9.74643 17.5178 9.68313 16.3873C9.62209 15.2878 10.0675 14.277 10.9356 13.5411C11.7653 12.8384 12.9318 12.4261 14.3108 12.3485C15.3259 12.2931 16.2777 12.3375 17.1548 12.4793C17.0373 11.7944 16.8021 11.2491 16.4495 10.8567C15.9657 10.3159 15.2174 10.041 14.2272 10.0343C14.2181 10.0343 14.2091 10.0343 14.2001 10.0343C13.4043 10.0343 12.3237 10.2494 11.6364 11.2535L9.98154 10.1651C10.9039 8.82183 12.4005 8.08146 14.2001 8.08146C14.2136 8.08146 14.2272 8.08146 14.2407 8.08146C17.2498 8.09919 19.0425 9.90578 19.2211 13.0579C19.3229 13.1 19.4246 13.1443 19.5241 13.1887C20.928 13.8359 21.9543 14.8157 22.4947 16.0238C23.2452 17.7062 23.3153 20.4482 21.0365 22.6361C19.2935 24.3075 17.1797 25.0633 14.182 25.0833H14.1684ZM15.1202 14.2859C14.8918 14.2859 14.6612 14.2926 14.4239 14.3059C12.6944 14.4012 11.616 15.1792 11.6771 16.2853C11.7404 17.4447 13.0448 17.9833 14.2995 17.9168C15.4525 17.857 16.9536 17.4158 17.2068 14.4898C16.5693 14.3546 15.8707 14.2859 15.1202 14.2859Z" fill="black" stroke="black" stroke-width="0.233333"/>
</svg>
