<svg width="28" height="28" viewBox="0 0 28 28" fill="none" xmlns="http://www.w3.org/2000/svg">
<path fill-rule="evenodd" clip-rule="evenodd" d="M7.58337 14.5834C7.58337 18.1272 10.4562 21 14 21C17.5439 21 20.4167 18.1272 20.4167 14.5834C20.4167 11.0395 17.5439 8.16671 14 8.16671C10.4562 8.16671 7.58337 11.0395 7.58337 14.5834ZM9.91671 14.5834C9.91671 12.3282 11.7449 10.5 14 10.5C16.2552 10.5 18.0834 12.3282 18.0834 14.5834C18.0834 16.8385 16.2552 18.6667 14 18.6667C11.7449 18.6667 9.91671 16.8385 9.91671 14.5834Z" fill="black"/>
<path fill-rule="evenodd" clip-rule="evenodd" d="M11.5869 2.33337C10.8782 2.33337 10.3236 2.62422 9.91201 2.95208C9.54305 3.24594 9.23361 3.61672 9.00933 3.88546L8.98145 3.91886C8.72029 4.23148 8.55277 4.42511 8.3879 4.55642C8.25017 4.66611 8.19332 4.66696 8.16671 4.66696L8.09921 4.66695C7.62247 4.6669 7.29787 4.66686 7.01161 4.69505C4.24208 4.96783 2.05091 7.15899 1.77813 9.92853C1.74994 10.2148 1.74998 10.5394 1.75004 11.0161L1.75004 17.0375C1.75003 18.3232 1.75002 19.3602 1.81972 20.1995C1.89149 21.0638 2.04317 21.8224 2.4068 22.5224C2.96024 23.5878 3.82894 24.4565 4.89436 25.01C5.59436 25.3736 6.35295 25.5253 7.21723 25.597C8.05651 25.6667 9.09349 25.6667 10.3792 25.6667H17.6208C18.9065 25.6667 19.9436 25.6667 20.7829 25.597C21.6471 25.5253 22.4057 25.3736 23.1057 25.01C24.1711 24.4565 25.0398 23.5878 25.5933 22.5224C25.9569 21.8224 26.1086 21.0638 26.1804 20.1995C26.2501 19.3602 26.2501 18.3233 26.25 17.0376L26.25 11.0162C26.2501 10.5394 26.2501 10.2148 26.222 9.92853C25.9492 7.15899 23.758 4.96783 20.9885 4.69505C20.7022 4.66686 20.3776 4.6669 19.9009 4.66695L19.8334 4.66696L19.8312 4.66711L19.8297 4.66628C19.8213 4.66256 19.7898 4.64668 19.7331 4.5964C19.5984 4.47686 19.4598 4.2954 19.2293 3.97934L19.2029 3.94317C19.0088 3.67668 18.7316 3.29603 18.3891 2.99206C18 2.64677 17.4556 2.33337 16.74 2.33337H11.5869ZM8.16671 7.00029C8.87544 7.00029 9.42994 6.70944 9.84158 6.38159C10.2105 6.08773 10.52 5.71696 10.7443 5.44821L10.7721 5.41481C11.0333 5.10219 11.2008 4.90856 11.3657 4.77725C11.5034 4.66756 11.5603 4.66671 11.5869 4.66671H16.74L16.7422 4.66656L16.7437 4.66739C16.7521 4.6711 16.7836 4.68699 16.8403 4.73727C16.975 4.85681 17.1136 5.03827 17.3441 5.35433L17.3705 5.39049C17.5646 5.65699 17.8418 6.03764 18.1844 6.34161C18.5734 6.6869 19.1178 7.00029 19.8334 7.00029C20.4029 7.00029 20.603 7.00171 20.7598 7.01715C22.4215 7.18081 23.7362 8.49551 23.8999 10.1572C23.9153 10.314 23.9167 10.5141 23.9167 11.0836V16.9867C23.9167 18.3351 23.9158 19.2751 23.855 20.0064C23.7955 20.7238 23.6844 21.1353 23.5227 21.4468C23.1906 22.086 22.6694 22.6073 22.0301 22.9393C21.7187 23.1011 21.3071 23.2121 20.5897 23.2717C19.8584 23.3324 18.9184 23.3334 17.57 23.3334H10.43C9.08165 23.3334 8.14169 23.3324 7.41034 23.2717C6.69295 23.2121 6.2814 23.1011 5.96996 22.9393C5.33071 22.6073 4.80949 22.086 4.47743 21.4468C4.31565 21.1353 4.20462 20.7238 4.14505 20.0064C4.08431 19.2751 4.08337 18.3351 4.08337 16.9867V11.0836C4.08337 10.5141 4.08479 10.314 4.10023 10.1572C4.26389 8.49551 5.5786 7.18081 7.24031 7.01715C7.39705 7.00171 7.59722 7.00029 8.16671 7.00029Z" fill="black"/>
</svg>
