<svg width="28" height="28" viewBox="0 0 28 28" fill="none" xmlns="http://www.w3.org/2000/svg">
<path d="M3.49994 24.5C3.49994 23.8557 4.02227 23.3334 4.66661 23.3334H23.3333C23.9776 23.3334 24.4999 23.8557 24.4999 24.5C24.4999 25.1444 23.9776 25.6667 23.3333 25.6667H4.66661C4.02227 25.6667 3.49994 25.1444 3.49994 24.5Z" fill="black"/>
<path d="M18.9082 13.6583C19.3638 13.2027 19.3638 12.464 18.9082 12.0084C18.4526 11.5528 17.7139 11.5528 17.2583 12.0084L15.1666 14.1001V15.1667C15.1666 15.811 14.6443 16.3334 13.9999 16.3334C13.3556 16.3334 12.8333 15.811 12.8333 15.1667V14.1001L10.7416 12.0084C10.286 11.5528 9.54726 11.5528 9.09165 12.0084C8.63604 12.464 8.63604 13.2027 9.09165 13.6583L13.175 17.7417C13.6306 18.1973 14.3693 18.1973 14.8249 17.7417L18.9082 13.6583Z" fill="black"/>
<path fill-rule="evenodd" clip-rule="evenodd" d="M13.9999 2.33337C13.3556 2.33337 12.8333 2.85571 12.8333 3.50004V14.1001L13.9999 15.2668L15.1666 14.1001V3.50004C15.1666 2.85571 14.6443 2.33337 13.9999 2.33337Z" fill="black"/>
<path d="M12.8333 15.1667C12.8333 15.811 13.3556 16.3334 13.9999 16.3334C14.6443 16.3334 15.1666 15.811 15.1666 15.1667V14.1001L13.9999 15.2668L12.8333 14.1001V15.1667Z" fill="black"/>
</svg>
