<svg width="28" height="28" viewBox="0 0 28 28" fill="none" xmlns="http://www.w3.org/2000/svg">
<path d="M13.4614 2.46158C13.6607 1.9825 14.3394 1.9825 14.5386 2.46158L17.412 9.36988C17.496 9.57185 17.6859 9.70984 17.904 9.72733L25.362 10.3252C25.8792 10.3667 26.089 11.0122 25.6949 11.3497L20.0126 16.2172C19.8465 16.3595 19.774 16.5828 19.8247 16.7956L21.5607 24.0734C21.6811 24.5781 21.1321 24.977 20.6893 24.7065L14.3041 20.8065C14.1174 20.6925 13.8827 20.6925 13.696 20.8065L7.31082 24.7065C6.86801 24.977 6.31895 24.5781 6.43934 24.0734L8.17537 16.7956C8.22612 16.5828 8.15357 16.3595 7.98744 16.2172L2.30517 11.3497C1.91111 11.0122 2.12083 10.3667 2.63805 10.3252L10.0961 9.72733C10.3142 9.70984 10.5041 9.57185 10.5881 9.36988L13.4614 2.46158Z" fill="black"/>
</svg>
