<svg width="28" height="28" viewBox="0 0 28 28" fill="none" xmlns="http://www.w3.org/2000/svg">
<path fill-rule="evenodd" clip-rule="evenodd" d="M12.287 7.10277C10.7589 9.95194 7.26716 11.2339 4.96065 9.5031C4.81681 9.39516 4.67757 9.2755 4.54371 9.14377C4.31089 8.91467 4.09432 8.64906 3.89804 8.3451C3.85911 8.28482 3.82098 8.22303 3.78368 8.15972C3.33111 7.39158 2.14192 7.87078 2.35976 8.73351L5.75165 22.1666L22.2484 22.1666L25.6403 8.73352C25.8582 7.87079 24.669 7.39158 24.2164 8.15972C24.1791 8.22303 24.141 8.28482 24.102 8.3451C23.9058 8.64906 23.6892 8.91467 23.4564 9.14377C23.3225 9.2755 23.1833 9.39516 23.0394 9.5031C20.7329 11.2339 17.2411 9.95194 15.7131 7.10278L14.8808 5.37624C14.7526 4.93188 14.3837 4.69372 14 4.66663C13.6164 4.69372 13.2475 4.93187 13.1193 5.37624L12.287 7.10277ZM14 8.78949C12.7277 10.7721 10.7025 12.1509 8.51784 12.5216C7.57525 12.6816 6.61185 12.6483 5.69328 12.4046L7.56905 19.8333L20.431 19.8333L22.3068 12.4046C21.3882 12.6483 20.4248 12.6816 19.4822 12.5216C17.2976 12.1509 15.2724 10.7721 14 8.78949Z" fill="black"/>
</svg>
