<svg width="28" height="28" viewBox="0 0 28 28" fill="none" xmlns="http://www.w3.org/2000/svg">
<path d="M9.91656 12.8333C10.722 12.8333 11.3749 12.1804 11.3749 11.375C11.3749 10.5695 10.722 9.91663 9.91656 9.91663C9.11115 9.91663 8.45823 10.5695 8.45823 11.375C8.45823 12.1804 9.11115 12.8333 9.91656 12.8333Z" fill="black"/>
<path d="M18.0832 12.8333C18.8886 12.8333 19.5416 12.1804 19.5416 11.375C19.5416 10.5695 18.8886 9.91663 18.0832 9.91663C17.2778 9.91663 16.6249 10.5695 16.6249 11.375C16.6249 12.1804 17.2778 12.8333 18.0832 12.8333Z" fill="black"/>
<path fill-rule="evenodd" clip-rule="evenodd" d="M2.91656 8.74996C2.91656 5.5283 5.52824 2.91663 8.7499 2.91663H19.2499C22.4716 2.91663 25.0832 5.5283 25.0832 8.74996V16.3333H25.081C25.058 16.5969 24.9455 16.8541 24.7438 17.0559L16.9351 24.8646C16.7012 25.0985 15.8004 25.0893 15.3226 25.0844C15.2634 25.0838 15.2107 25.0833 15.1666 25.0833H8.7499C5.52824 25.0833 2.91656 22.4716 2.91656 19.25V8.74996ZM8.7499 5.24996H19.2499C21.1829 5.24996 22.7499 6.81696 22.7499 8.74996V14H20.9999C18.7936 14 16.8257 15.0207 15.5427 16.6157C15.4727 16.6284 15.4029 16.6477 15.334 16.674C14.9274 16.8291 14.476 16.9166 13.997 16.9166C12.909 16.9166 11.9671 16.4657 11.3653 15.8001C10.9332 15.3222 10.1955 15.285 9.7175 15.7171C9.23954 16.1492 9.20237 16.887 9.63447 17.3649C10.6891 18.5315 12.2652 19.25 13.997 19.25C14.0721 19.25 14.147 19.2486 14.2215 19.2459C14.0768 19.8065 13.9999 20.3942 13.9999 21V22.75H8.7499C6.8169 22.75 5.2499 21.183 5.2499 19.25V8.74996C5.2499 6.81696 6.8169 5.24996 8.7499 5.24996ZM22.1666 16.3333H20.9999C18.4226 16.3333 16.3332 18.4226 16.3332 21V22.1666L22.1666 16.3333Z" fill="black"/>
</svg>
