<svg width="28" height="28" viewBox="0 0 28 28" fill="none" xmlns="http://www.w3.org/2000/svg">
<path d="M9.95806 21C9.93081 21.1905 9.91671 21.3853 9.91671 21.5833C9.91671 23.8385 11.7449 25.6667 14 25.6667C16.2552 25.6667 18.0834 23.8385 18.0834 21.5833C18.0834 21.3853 18.0693 21.1905 18.042 21H15.6505C15.715 21.1825 15.75 21.3788 15.75 21.5833C15.75 22.5498 14.9665 23.3333 14 23.3333C13.0335 23.3333 12.25 22.5498 12.25 21.5833C12.25 21.3788 12.2851 21.1825 12.3496 21H9.95806Z" fill="black"/>
<path d="M14 22.1667H19.8356C22.0908 22.1667 23.919 20.3385 23.919 18.0833C23.919 16.4277 23.0058 15.517 21.9604 14.4745L21.8472 14.3616C21.8391 14.3466 21.8137 14.2973 21.7825 14.1934C21.7305 14.0198 21.6855 13.7735 21.6528 13.4464C21.5868 12.7871 21.5857 11.9756 21.5857 11.0833C21.5857 9.08335 20.9181 7.59922 20.0773 6.75836C19.077 5.75808 18.1638 5.38254 17.5043 5.18468C17.202 5.09399 17.0431 4.89084 16.8188 4.66658C16.0718 3.91956 15.0587 3.49997 14.0023 3.5L14 3.5V5.83526C14.0072 5.83381 14.0077 5.83333 14.0024 5.83333C14.4399 5.83332 14.8595 6.0071 15.1689 6.3165C15.3014 6.44897 15.3736 6.60566 15.4924 6.74976C15.6999 7.00141 15.9493 7.12753 16.0986 7.19132C16.2495 7.2558 16.4055 7.29993 16.5068 7.32806C16.5454 7.33878 16.5805 7.34834 16.6139 7.35746C16.688 7.37768 16.7544 7.39577 16.8338 7.41959C17.216 7.53428 17.7612 7.74207 18.4274 8.40827C18.7532 8.73408 19.2523 9.58328 19.2523 11.0833V11.1207C19.2523 11.9682 19.2523 12.8911 19.331 13.6786C19.3712 14.0807 19.4356 14.4906 19.5476 14.8639C19.6554 15.2231 19.8369 15.6511 20.1774 15.9916C21.4109 17.2252 21.5857 17.4755 21.5857 18.0833C21.5857 19.0498 20.8021 19.8333 19.8356 19.8333H14V22.1667Z" fill="black"/>
<path d="M14.0023 22.1667H8.16672C5.91155 22.1667 4.08337 20.3385 4.08337 18.0833C4.08337 16.4277 4.99656 15.517 6.04199 14.4745L6.1552 14.3616C6.1633 14.3466 6.18864 14.2973 6.21982 14.1934C6.2719 14.0198 6.31687 13.7735 6.34958 13.4464C6.41551 12.7871 6.41671 11.9756 6.41671 11.0833C6.41671 9.08335 7.08422 7.59922 7.92508 6.75836C8.92536 5.75808 9.83857 5.38254 10.498 5.18468C10.8003 5.09399 10.9593 4.89084 11.1835 4.66658C11.9306 3.91956 12.9436 3.49997 14 3.5L14.0023 3.5L14.0023 5.83526C13.9952 5.83381 13.9946 5.83333 14 5.83333C13.5624 5.83332 13.1428 6.0071 12.8334 6.3165C12.701 6.44897 12.6287 6.60566 12.5099 6.74976C12.3025 7.00141 12.053 7.12753 11.9038 7.19132C11.7529 7.2558 11.5968 7.29993 11.4956 7.32806C11.457 7.33878 11.4219 7.34834 11.3885 7.35746C11.3143 7.37768 11.248 7.39577 11.1686 7.41959C10.7863 7.53428 10.2412 7.74207 9.575 8.40827C9.24919 8.73408 8.75004 9.58328 8.75004 11.0833V11.1207C8.75006 11.9682 8.75008 12.8911 8.67133 13.6786C8.63113 14.0807 8.56673 14.4906 8.45474 14.8639C8.34698 15.2231 8.16546 15.6511 7.825 15.9916C6.59143 17.2252 6.41671 17.4755 6.41671 18.0833C6.41671 19.0498 7.20022 19.8333 8.16672 19.8333H14.0023V22.1667Z" fill="black"/>
<path fill-rule="evenodd" clip-rule="evenodd" d="M10.3409 13.2575C10.751 12.8475 11.4158 12.8475 11.8259 13.2575L13.1251 14.5567L16.1743 11.5075C16.5843 11.0975 17.2491 11.0975 17.6592 11.5075C18.0693 11.9176 18.0693 12.5824 17.6592 12.9925L13.8675 16.7841C13.4575 17.1942 12.7927 17.1942 12.3826 16.7841L10.3409 14.7425C9.93089 14.3324 9.93089 13.6676 10.3409 13.2575Z" fill="black"/>
</svg>
