<svg width="28" height="28" viewBox="0 0 28 28" fill="none" xmlns="http://www.w3.org/2000/svg">
<path fill-rule="evenodd" clip-rule="evenodd" d="M11.6337 5.07914C14.7505 1.96239 19.8038 1.96239 22.9206 5.07914C26.0374 8.19588 26.0374 13.2491 22.9206 16.3659L21.9843 17.3022C21.4531 17.8333 20.592 17.8333 20.0608 17.3022C19.5297 16.7711 19.5297 15.9099 20.0608 15.3788L20.9972 14.4425C23.0517 12.388 23.0517 9.05702 20.9972 7.00254C18.9427 4.94806 15.6116 4.94806 13.5571 7.00254L12.6207 7.93887C12.0896 8.47 11.2284 8.47 10.6973 7.93887C10.1662 7.40774 10.1662 6.5466 10.6973 6.01547L11.6337 5.07914ZM16.7171 9.22613C17.2482 8.695 18.1093 8.695 18.6405 9.22613C19.1716 9.75726 19.1716 10.6184 18.6405 11.1495L11.1497 18.6402C10.6185 19.1713 9.75739 19.1713 9.22625 18.6402C8.6951 18.1091 8.6951 17.2479 9.22625 16.7168L16.7171 9.22613ZM6.0155 10.6976C6.54664 10.1665 7.40779 10.1665 7.93893 10.6976C8.47008 11.2287 8.47008 12.0899 7.93893 12.621L7.00258 13.5573C4.94806 15.6118 4.94806 18.9428 7.00258 20.9973C9.05711 23.0518 12.3881 23.0518 14.4427 20.9973L15.379 20.0609C15.9102 19.5298 16.7713 19.5298 17.3025 20.0609C17.8336 20.5921 17.8336 21.4532 17.3025 21.9844L16.3661 22.9207C13.2493 26.0374 8.19596 26.0374 5.07915 22.9207C1.96234 19.8039 1.96234 14.7507 5.07915 11.6339L6.0155 10.6976Z" fill="black"/>
</svg>
