<svg width="28" height="28" viewBox="0 0 28 28" fill="none" xmlns="http://www.w3.org/2000/svg">
<path fill-rule="evenodd" clip-rule="evenodd" d="M10.4999 7.00004C8.08365 7.00004 6.1249 8.95879 6.1249 11.375C6.1249 13.7913 8.08365 15.75 10.4999 15.75C12.9161 15.75 14.8749 13.7913 14.8749 11.375C14.8749 8.95879 12.9161 7.00004 10.4999 7.00004ZM7.8749 11.375C7.8749 9.92529 9.05015 8.75004 10.4999 8.75004C11.9496 8.75004 13.1249 9.92529 13.1249 11.375C13.1249 12.8248 11.9496 14 10.4999 14C9.05015 14 7.8749 12.8248 7.8749 11.375Z" fill="black"/>
<path d="M2.91656 22.3523C2.91656 19.1892 5.48075 16.625 8.64384 16.625H12.356C15.519 16.625 18.0832 19.1892 18.0832 22.3523V22.6705C18.0832 23.1977 17.6559 23.625 17.1287 23.625C16.6015 23.625 16.1741 23.1977 16.1741 22.6705V22.3523C16.1741 20.2436 14.4647 18.5341 12.356 18.5341H8.64384C6.53511 18.5341 4.82566 20.2436 4.82566 22.3523V22.6705C4.82566 23.1977 4.39829 23.625 3.87111 23.625C3.34393 23.625 2.91656 23.1977 2.91656 22.6705V22.3523Z" fill="black"/>
<path d="M15.4167 6.86094C15.898 6.23449 16.6519 5.83337 17.4999 5.83337C18.9496 5.83337 20.1249 7.00863 20.1249 8.45837C20.1249 9.90812 18.9496 11.0834 17.4999 11.0834C17.395 11.0834 17.2919 11.0773 17.1909 11.0655C16.7109 11.0094 16.2764 11.353 16.2203 11.833C16.1642 12.313 16.5079 12.7476 16.9879 12.8036C17.1562 12.8233 17.327 12.8334 17.4999 12.8334C19.9161 12.8334 21.8749 10.8746 21.8749 8.45837C21.8749 6.04213 19.9161 4.08337 17.4999 4.08337C16.0853 4.08337 14.8273 4.75573 14.029 5.79471C13.7346 6.17791 13.8065 6.72724 14.1897 7.02167C14.5729 7.3161 15.1223 7.24414 15.4167 6.86094Z" fill="black"/>
<path d="M16.9165 14.2917L19.356 14.2917C22.5191 14.2917 25.0833 16.8559 25.0833 20.019V20.3372C25.0833 20.8643 24.6559 21.2917 24.1288 21.2917C23.6016 21.2917 23.1742 20.8643 23.1742 20.3372V20.019C23.1742 17.9103 21.4648 16.2008 19.356 16.2008H16.9165C15.1666 16.2008 15.1667 14.2917 16.9165 14.2917Z" fill="black"/>
</svg>
