<svg width="28" height="28" viewBox="0 0 28 28" fill="none" xmlns="http://www.w3.org/2000/svg">
<path fill-rule="evenodd" clip-rule="evenodd" d="M9.00928 5.13328L23.3334 2.91663L23.3334 18.9872C23.3334 21.1296 21.6067 22.8664 19.4768 22.8664C17.3469 22.8664 15.6203 21.1296 15.6203 18.9872C15.6203 16.8448 17.3469 15.1081 19.4768 15.1081C20.0683 15.1081 20.6287 15.242 21.1297 15.4814V9.90761L11.213 11.4422V21.2042C11.213 23.3466 9.48636 25.0834 7.35648 25.0834C5.22661 25.0834 3.5 23.3466 3.5 21.2042C3.5 19.0618 5.22661 17.3251 7.35648 17.3251C7.94796 17.3251 8.50833 17.459 9.00927 17.6984L9.00928 5.13328ZM11.3426 9.06105V7.1333L21 5.63882V7.56656L11.3426 9.06105ZM7.35648 22.75C8.18482 22.75 8.87963 22.0709 8.87963 21.2042C8.87963 20.3376 8.18482 19.6584 7.35648 19.6584C6.52814 19.6584 5.83333 20.3376 5.83333 21.2042C5.83333 22.0709 6.52814 22.75 7.35648 22.75ZM19.4768 20.533C20.3052 20.533 21 19.8539 21 18.9872C21 18.1206 20.3052 17.4414 19.4768 17.4414C18.6485 17.4414 17.9537 18.1206 17.9537 18.9872C17.9537 19.8539 18.6485 20.533 19.4768 20.533Z" fill="black"/>
</svg>
