<svg width="28" height="28" viewBox="0 0 28 28" fill="none" xmlns="http://www.w3.org/2000/svg">
<path d="M9.16826 2.41491C7.92692 2.47347 7.07921 2.67158 6.33813 2.96278C5.57116 3.26168 4.92109 3.66279 4.27428 4.31193C3.62747 4.96107 3.22917 5.61161 2.93237 6.37975C2.64513 7.12246 2.45053 7.97086 2.39569 9.21291C2.34086 10.455 2.32873 10.8542 2.33479 14.0224C2.34086 17.1907 2.35486 17.5878 2.41506 18.8324C2.47433 20.0735 2.67173 20.921 2.96293 21.6623C3.2623 22.4293 3.66294 23.0791 4.31231 23.7262C4.96169 24.3732 5.61176 24.7706 6.38177 25.0678C7.12378 25.3546 7.97242 25.5501 9.21423 25.6045C10.456 25.6589 10.8557 25.6715 14.023 25.6654C17.1903 25.6593 17.5891 25.6453 18.8335 25.5863C20.0779 25.5273 20.9209 25.3285 21.6625 25.0387C22.4294 24.7386 23.0797 24.3387 23.7263 23.6891C24.3729 23.0394 24.771 22.3884 25.0675 21.6198C25.355 20.8778 25.5503 20.0292 25.6042 18.7883C25.6586 17.543 25.6714 17.1454 25.6653 13.9776C25.6593 10.8099 25.645 10.4127 25.586 9.16858C25.527 7.92443 25.3293 7.07952 25.0384 6.33775C24.7385 5.57077 24.3383 4.9214 23.6892 4.27389C23.0401 3.62639 22.3886 3.22855 21.6202 2.93268C20.8777 2.64544 20.0296 2.44967 18.7878 2.39601C17.5459 2.34234 17.1462 2.32857 13.9778 2.33464C10.8093 2.34071 10.4126 2.35424 9.16826 2.41491ZM9.30453 23.5057C8.16702 23.4562 7.54938 23.2672 7.13777 23.109C6.5927 22.899 6.20443 22.6451 5.79423 22.2389C5.38402 21.8326 5.13202 21.443 4.91922 20.8991C4.75938 20.4875 4.56688 19.8705 4.51368 18.733C4.45581 17.5036 4.44368 17.1344 4.43691 14.0196C4.43015 10.9048 4.44205 10.5362 4.49595 9.30624C4.54448 8.16967 4.73465 7.55133 4.89262 7.13996C5.10262 6.59418 5.35556 6.20661 5.76273 5.79664C6.1699 5.38667 6.5584 5.1342 7.10277 4.9214C7.51391 4.76086 8.13085 4.57 9.2679 4.51586C10.4983 4.45753 10.8669 4.44586 13.9813 4.43909C17.0956 4.43233 17.4652 4.44399 18.6961 4.49813C19.8326 4.5476 20.4512 4.7359 20.8621 4.8948C21.4074 5.1048 21.7955 5.35704 22.2054 5.76491C22.6154 6.17278 22.8681 6.55988 23.0809 7.10542C23.2417 7.51539 23.4325 8.1321 23.4862 9.26984C23.5448 10.5002 23.5581 10.8691 23.5637 13.9832C23.5693 17.0973 23.5583 17.4672 23.5044 18.6966C23.4547 19.8341 23.2662 20.452 23.1077 20.8641C22.8977 21.4089 22.6446 21.7974 22.2372 22.2071C21.8298 22.6169 21.4417 22.8693 20.8971 23.0821C20.4864 23.2425 19.8688 23.4338 18.7327 23.4879C17.5023 23.5458 17.1336 23.5579 14.0181 23.5647C10.9026 23.5715 10.5351 23.5589 9.30476 23.5057M18.8155 7.7646C18.816 8.04151 18.8986 8.31207 19.0528 8.54205C19.207 8.77204 19.426 8.95112 19.682 9.05664C19.9381 9.16216 20.2196 9.18939 20.4911 9.13488C20.7626 9.08037 21.0119 8.94657 21.2073 8.7504C21.4028 8.55423 21.5356 8.30451 21.5892 8.03281C21.6427 7.76112 21.6144 7.47965 21.508 7.22402C21.4015 6.96839 21.2216 6.75006 20.9911 6.59667C20.7605 6.44327 20.4897 6.36169 20.2127 6.36225C19.8415 6.36299 19.4858 6.51114 19.2238 6.77412C18.9618 7.03709 18.8149 7.39337 18.8155 7.7646ZM8.00975 14.0117C8.01628 17.3204 10.7034 19.9965 14.0114 19.9902C17.3194 19.9839 19.9974 17.2971 19.9911 13.9884C19.9848 10.6797 17.297 8.00283 13.9885 8.00936C10.68 8.0159 8.00345 10.7035 8.00975 14.0117ZM10.1112 14.0075C10.1097 13.2383 10.3362 12.486 10.7623 11.8456C11.1884 11.2052 11.7948 10.7055 12.5048 10.4098C13.2148 10.114 13.9966 10.0355 14.7513 10.184C15.506 10.3326 16.1997 10.7016 16.7447 11.2444C17.2896 11.7872 17.6614 12.4794 17.8129 13.2335C17.9645 13.9876 17.889 14.7697 17.5961 15.4809C17.3031 16.1921 16.8059 16.8005 16.1672 17.2291C15.5285 17.6577 14.777 17.8873 14.0079 17.8888C13.4971 17.8899 12.9912 17.7903 12.519 17.5958C12.0467 17.4014 11.6174 17.1157 11.2555 16.7553C10.8937 16.3949 10.6064 15.9667 10.41 15.4952C10.2137 15.0238 10.1121 14.5182 10.1112 14.0075Z" fill="black"/>
</svg>
