<svg width="28" height="28" viewBox="0 0 28 28" fill="none" xmlns="http://www.w3.org/2000/svg">
<path d="M22.1666 11.4742H19.6774V9.76769C19.6774 5.62644 17.7906 3.55581 14.017 3.55581C12.312 3.55581 10.9594 4.10191 9.95921 5.19411C8.98171 6.26355 8.49296 7.83359 8.49296 9.90421V18.0616C8.49296 19.9957 8.95898 21.543 9.89101 22.7034C10.823 23.8639 12.1643 24.4441 13.9147 24.4441H14.1193C15.7787 24.4441 17.0631 24.0004 17.9724 23.113C18.9045 22.2483 19.3705 21.1106 19.3705 19.6999V18.2322C19.3705 17.4358 19.2796 16.7873 19.0977 16.2867C18.9386 15.7634 18.6658 15.3652 18.2793 15.0922V16.2526C18.2793 17.8454 17.9042 19.0741 17.1541 19.9388C16.4266 20.7807 15.3923 21.2016 14.0511 21.2016C12.9144 21.2016 11.9597 20.8262 11.1868 20.0753C10.4139 19.3017 10.0274 18.2777 10.0274 17.0035C10.0274 15.6838 10.4025 14.6371 11.1527 13.8634C11.9256 13.0898 13.0054 12.703 14.3921 12.703H16.0288V11.3036C16.0288 9.75631 15.415 8.98267 14.1875 8.98267C13.5964 8.98267 13.1531 9.17608 12.8576 9.5629C12.5621 9.94972 12.4143 10.4389 12.4143 11.0305V11.7814H10.232V11.0988C10.232 9.68805 10.6071 8.6186 11.3573 7.89047C12.1074 7.16234 13.0508 6.79827 14.1875 6.79827C16.9154 6.79827 18.2793 8.25454 18.2793 11.1671V12.9419C20.6435 13.5563 21.8256 15.4562 21.8256 18.6418V19.5292C21.8256 21.8956 21.0982 23.7046 19.6433 24.9561C18.1884 26.2076 16.3243 26.8333 14.0511 26.8333H13.9147C12.3689 26.8333 10.9822 26.492 9.75462 25.8094C8.54979 25.1495 7.59502 24.1711 6.89032 22.8741C6.18561 21.5771 5.83325 20.0412 5.83325 18.2664V9.76769C5.83325 7.94736 6.18561 6.3887 6.89032 5.09171C7.61776 3.79473 8.59526 2.8163 9.82281 2.15643C11.0504 1.49656 12.4484 1.16663 14.017 1.16663C16.5857 1.16663 18.5862 1.90614 20.0184 3.38515C21.4505 4.86417 22.1666 6.99168 22.1666 9.76769V11.4742ZM13.9829 19.0172C14.7103 19.0172 15.2332 18.7897 15.5514 18.3346C15.8697 17.8568 16.0288 17.14 16.0288 16.1844V14.6143H14.4262C13.7214 14.6143 13.1759 14.8077 12.7894 15.1945C12.403 15.5814 12.2097 16.1502 12.2097 16.9011C12.2097 17.5382 12.3802 18.0502 12.7212 18.437C13.0622 18.8238 13.4828 19.0172 13.9829 19.0172Z" fill="black"/>
</svg>
