<svg width="28" height="28" viewBox="0 0 28 28" fill="none" xmlns="http://www.w3.org/2000/svg">
<path fill-rule="evenodd" clip-rule="evenodd" d="M10.2279 1.42805C10.4258 0.506322 11.741 0.506327 11.9389 1.42805L12.8362 5.60661C12.8603 5.71881 12.9479 5.80645 13.0601 5.83054L17.2387 6.72783C18.1604 6.92576 18.1604 8.2409 17.2387 8.43883L13.0601 9.33612C12.9479 9.36021 12.8603 9.44786 12.8362 9.56005L11.9389 13.7386C11.741 14.6603 10.4258 14.6603 10.2279 13.7386L9.3306 9.56005C9.30651 9.44786 9.21887 9.36021 9.10667 9.33612L4.92811 8.43883C4.00638 8.2409 4.00639 6.92576 4.92811 6.72783L9.10667 5.83054C9.21887 5.80645 9.30651 5.71881 9.3306 5.60661L10.2279 1.42805ZM20.1446 11.9281C20.3425 11.0063 21.6576 11.0063 21.8556 11.928L22.6497 15.6264C22.6738 15.7386 22.7615 15.8262 22.8737 15.8503L26.572 16.6445C27.4937 16.8424 27.4937 18.1576 26.572 18.3555L22.8737 19.1497C22.7615 19.1738 22.6738 19.2614 22.6497 19.3736L21.8556 23.0719C21.6576 23.9937 20.3425 23.9937 20.1446 23.0719L19.3504 19.3736C19.3263 19.2614 19.2387 19.1738 19.1265 19.1497L15.4281 18.3555C14.5064 18.1576 14.5064 16.8424 15.4281 16.6445L19.1265 15.8503C19.2387 15.8262 19.3263 15.7386 19.3504 15.6264L20.1446 11.9281ZM5.56123 16.5947C5.75916 15.673 7.0743 15.673 7.27222 16.5947L7.96328 19.8128C7.98737 19.925 8.07501 20.0127 8.18721 20.0368L11.4053 20.7278C12.3271 20.9258 12.3271 22.2409 11.4053 22.4388L8.18721 23.1299C8.07501 23.154 7.98737 23.2416 7.96328 23.3538L7.27222 26.5719C7.0743 27.4937 5.75916 27.4937 5.56123 26.5719L4.87017 23.3538C4.84608 23.2416 4.75844 23.154 4.64624 23.1299L1.42811 22.4388C0.506387 22.2409 0.506384 20.9258 1.42811 20.7278L4.64624 20.0368C4.75844 20.0127 4.84608 19.925 4.87017 19.8128L5.56123 16.5947Z" fill="black"/>
</svg>
