<svg width="28" height="28" viewBox="0 0 28 28" fill="none" xmlns="http://www.w3.org/2000/svg">
<path d="M19.2759 23.3334C18.24 23.3334 17.4006 23.0013 16.7576 22.3371C16.1325 21.6729 15.82 20.8078 15.82 19.7416C15.82 18.7104 16.1057 17.8976 16.6773 17.3034C17.2488 16.6916 18.0882 16.2285 19.1955 15.9139L21.1244 15.3633C21.5888 15.2409 21.9192 15.0749 22.1157 14.8652C22.3121 14.6554 22.4104 14.3408 22.4104 13.9213C22.4104 13.3446 22.2228 12.8814 21.8478 12.5318C21.4727 12.1823 20.9458 12.0075 20.2671 12.0075C19.642 12.0075 19.133 12.191 18.7401 12.558C18.365 12.9076 18.1775 13.4057 18.1775 14.0524V14.5506H16.0879V14.0524C16.0879 12.8639 16.4629 11.9201 17.2131 11.221C17.981 10.5218 18.9991 10.1723 20.2671 10.1723C21.6245 10.1723 22.6693 10.5044 23.4016 11.1685C24.1339 11.8327 24.5 12.7853 24.5 14.0262V23.0187H22.4639V21.1049C22.2675 21.804 21.8835 22.3546 21.312 22.7566C20.7404 23.1411 20.0618 23.3334 19.2759 23.3334ZM19.7581 21.4981C20.6869 21.4981 21.3566 21.1748 21.7674 20.5281C22.196 19.8814 22.4104 19.0687 22.4104 18.0899V16.5169C22.2675 16.6742 22.0889 16.8052 21.8746 16.9101C21.6602 16.9975 21.3655 17.0936 20.9905 17.1985L19.7849 17.5393C18.5347 17.8889 17.9096 18.5968 17.9096 19.6629C17.9096 20.2222 18.0703 20.6679 18.3918 21C18.7312 21.3321 19.1866 21.4981 19.7581 21.4981Z" fill="black"/>
<path d="M15.0734 23.0188H12.8498L11.9657 19.06H6.63446L5.75038 23.0188H3.5L7.84002 4.66669H10.7334L15.0734 23.0188ZM9.28669 7.13111L7.08989 17.015H11.5103L9.28669 7.13111Z" fill="black"/>
</svg>
