<svg width="16" height="16" viewBox="0 0 16 16" fill="none" xmlns="http://www.w3.org/2000/svg">
<path fill-rule="evenodd" clip-rule="evenodd" d="M6.85986 0.275664C6.48101 -0.0918881 5.86678 -0.0918881 5.48793 0.275664C5.10908 0.643216 5.10908 1.23914 5.48793 1.60669L6.32355 2.41739H5C2.79086 2.41739 1 4.20825 1 6.41739V12C1 14.2091 2.79086 16 5 16H11C13.2091 16 15 14.2091 15 12V6.41739C15 4.20826 13.2091 2.41739 11 2.41739H9.67641L10.512 1.60669C10.8909 1.23914 10.8909 0.643216 10.512 0.275664C10.1332 -0.0918881 9.51895 -0.0918881 9.1401 0.275664L7.99998 1.3818L6.85986 0.275664ZM6.81542 9.81681L4.09899 10.5568C3.56612 10.702 3.01647 10.3877 2.87131 9.85484C2.72614 9.32197 3.04043 8.77232 3.5733 8.62716L6.92115 7.71512C7.86967 7.45672 8.80439 8.1651 8.81532 9.14501L11.2944 8.24545C11.8136 8.05706 12.3872 8.32521 12.5755 8.84438C12.7639 9.36354 12.4958 9.93712 11.9766 10.1255L8.82706 11.2683C7.84895 11.6233 6.81542 10.8988 6.81542 9.8583V9.81681Z" fill="white"/>
</svg>
