<svg width="28" height="28" viewBox="0 0 28 28" fill="none" xmlns="http://www.w3.org/2000/svg">
<path fill-rule="evenodd" clip-rule="evenodd" d="M14.0001 9.10027C13.1868 9.10027 12.4545 8.60777 12.1477 7.85451C12.1487 7.85678 12.1481 7.85567 12.1457 7.85138C12.1314 7.82537 12.0528 7.6824 11.861 7.46363C11.6545 7.22814 11.3674 6.9636 11.0098 6.72609C10.3041 6.25741 9.37027 5.91996 8.22463 6.04433C6.55022 6.2261 5.51838 7.01881 4.8789 7.9842C4.19827 9.01172 3.93786 10.2864 4.01218 11.3034C4.09016 12.3704 4.21242 13.1954 4.77794 14.2577C5.37982 15.3882 6.54749 16.8978 8.95047 19.1109C11.2204 21.2013 12.808 22.5615 13.8194 23.3811C13.9049 23.4503 13.9674 23.4592 14.0001 23.4592C14.0328 23.4592 14.0953 23.4503 14.1808 23.3811C15.1922 22.5615 16.7798 21.2013 19.0497 19.1109C21.4527 16.8978 22.6203 15.3882 23.2222 14.2577C23.7877 13.1954 23.91 12.3704 23.988 11.3034C24.062 10.2907 23.7993 9.01595 23.1155 7.9861C22.4721 7.01731 21.4384 6.22559 19.7747 6.04423C18.8061 5.93865 17.8632 6.25228 17.0697 6.75809C16.6783 7.00756 16.3578 7.28311 16.1291 7.52453C15.9175 7.74792 15.8473 7.8749 15.845 7.87369C15.8446 7.87343 15.8473 7.86715 15.8524 7.85451C15.5457 8.60777 14.8134 9.10027 14.0001 9.10027ZM12.6535 5.45813C13.3698 6.0483 13.8323 6.6882 14.0001 7.10027C14.1647 6.69596 14.6599 6.07721 15.391 5.50034C16.495 4.62937 18.1369 3.85386 19.9914 4.05601C24.5703 4.55513 26.1893 8.62241 25.9827 11.4492C25.8084 13.8341 25.3629 16.0156 20.4046 20.582C18.1132 22.6923 16.4928 24.0818 15.4399 24.935C14.5773 25.6339 13.4229 25.6339 12.5603 24.935C11.5074 24.0818 9.88702 22.6923 7.59559 20.582C2.63729 16.0156 2.19179 13.8341 2.0175 11.4492C1.81091 8.62241 3.41107 4.55513 8.00878 4.05601C10.0151 3.8382 11.6059 4.59499 12.6535 5.45813Z" fill="black"/>
</svg>
