<svg width="16" height="16" viewBox="0 0 16 16" fill="none" xmlns="http://www.w3.org/2000/svg">
<path fill-rule="evenodd" clip-rule="evenodd" d="M4.96711 11.5302C4.67428 11.2373 4.67439 10.7624 4.96735 10.4696L9.18877 6.24999L6.99756 6.24999C6.58335 6.24999 6.24756 5.91421 6.24756 5.49999C6.24756 5.08578 6.58334 4.74999 6.99756 4.74999L11 4.74999C11.199 4.74999 11.3898 4.82907 11.5305 4.96982C11.6712 5.11057 11.7501 5.30146 11.75 5.50045L11.7476 9.50045C11.7473 9.91466 11.4113 10.2502 10.9971 10.25C10.5829 10.2497 10.2473 9.91375 10.2476 9.49953L10.2489 7.31119L6.02777 11.5304C5.73481 11.8233 5.25994 11.8232 4.96711 11.5302Z" fill="black"/>
</svg>
