<svg width="16" height="16" viewBox="0 0 16 16" fill="none" xmlns="http://www.w3.org/2000/svg">
<path fill-rule="evenodd" clip-rule="evenodd" d="M4.59524 8.325C4.59524 10.2994 6.1196 11.9 8 11.9C9.8804 11.9 11.4048 10.2994 11.4048 8.325C11.4048 6.35058 9.8804 4.75 8 4.75C6.1196 4.75 4.59524 6.35058 4.59524 8.325ZM5.83334 8.325C5.83334 7.06855 6.80338 6.05 8 6.05C9.19662 6.05 10.1667 7.06855 10.1667 8.325C10.1667 9.58145 9.19662 10.6 8 10.6C6.80338 10.6 5.83334 9.58145 5.83334 8.325Z" fill="black"/>
<path fill-rule="evenodd" clip-rule="evenodd" d="M6.71955 1.5C6.34349 1.5 6.04926 1.66205 5.83084 1.84471C5.63507 2.00843 5.47088 2.21501 5.35187 2.36473L5.33708 2.38334C5.1985 2.55752 5.10961 2.66539 5.02213 2.73855C4.94905 2.79967 4.91889 2.80014 4.90476 2.80014L4.86895 2.80014C4.61599 2.8001 4.44375 2.80008 4.29186 2.81579C2.82231 2.96777 1.65965 4.18856 1.51491 5.73159C1.49995 5.89107 1.49997 6.07192 1.5 6.33753L1.50001 9.6923C1.5 10.4086 1.49999 10.9864 1.53698 11.454C1.57506 11.9355 1.65554 12.3582 1.84849 12.7482C2.14215 13.3418 2.60309 13.8257 3.16842 14.1341C3.53985 14.3367 3.94236 14.4212 4.40096 14.4612C4.84629 14.5 5.39653 14.5 6.07872 14.5H9.92122C10.6034 14.5 11.1537 14.5 11.599 14.4612C12.0576 14.4212 12.4602 14.3367 12.8316 14.1341C13.3969 13.8257 13.8579 13.3418 14.1515 12.7482C14.3445 12.3582 14.4249 11.9355 14.463 11.454C14.5 10.9864 14.5 10.4087 14.5 9.69235L14.5 6.33755C14.5 6.07193 14.5001 5.89108 14.4851 5.73159C14.3404 4.18856 13.1777 2.96777 11.7081 2.81579C11.5563 2.80008 11.384 2.8001 11.1311 2.80014L11.0952 2.80014L11.0941 2.80022L11.0933 2.79976C11.0888 2.79769 11.0721 2.78884 11.042 2.76083C10.9706 2.69423 10.897 2.59313 10.7747 2.41704L10.7607 2.39689C10.6577 2.24841 10.5106 2.03634 10.3289 1.86698C10.1224 1.6746 9.83358 1.5 9.45388 1.5H6.71955ZM4.90476 4.10014C5.28082 4.10014 5.57505 3.9381 5.79347 3.75544C5.98924 3.59171 6.15343 3.38514 6.27244 3.23541L6.28724 3.2168C6.42582 3.04262 6.5147 2.93475 6.60218 2.86159C6.67526 2.80047 6.70543 2.8 6.71955 2.8H9.45388L9.45502 2.79992L9.45582 2.80038C9.46027 2.80245 9.47701 2.8113 9.50707 2.83931C9.57855 2.90591 9.65209 3.00701 9.77441 3.1831L9.78839 3.20325C9.89139 3.35173 10.0385 3.5638 10.2203 3.73316C10.4267 3.92554 10.7155 4.10014 11.0952 4.10014C11.3974 4.10014 11.5036 4.10093 11.5868 4.10953C12.4685 4.20072 13.1661 4.93319 13.253 5.85901C13.2612 5.94633 13.2619 6.05785 13.2619 6.37514V9.664C13.2619 10.4152 13.2614 10.9389 13.2292 11.3464C13.1976 11.7461 13.1387 11.9754 13.0528 12.1489C12.8766 12.5051 12.6 12.7954 12.2609 12.9805C12.0956 13.0706 11.8772 13.1324 11.4966 13.1656C11.1085 13.1995 10.6098 13.2 9.89429 13.2H6.10572C5.39024 13.2 4.89149 13.1995 4.50343 13.1656C4.12277 13.1324 3.9044 13.0706 3.73915 12.9805C3.39995 12.7954 3.12339 12.5051 2.94719 12.1489C2.86135 11.9754 2.80244 11.7461 2.77082 11.3464C2.7386 10.9389 2.7381 10.4152 2.7381 9.664V6.37514C2.7381 6.05785 2.73885 5.94633 2.74704 5.85901C2.83389 4.93319 3.53148 4.20072 4.41321 4.10953C4.49638 4.10093 4.60259 4.10014 4.90476 4.10014Z" fill="black"/>
</svg>
