<svg width="16" height="16" viewBox="0 0 16 16" fill="none" xmlns="http://www.w3.org/2000/svg">
<path fill-rule="evenodd" clip-rule="evenodd" d="M0.590271 4.53443C0.5 4.87249 0.5 5.28444 0.5 6.10836V10.7067C0.5 12.2253 0.5 12.9846 0.800231 13.5626C1.05323 14.0496 1.45035 14.4468 1.9374 14.6998C2.51537 15 3.27469 15 4.79333 15H11.2067C12.7253 15 13.4846 15 14.0626 14.6998C14.5496 14.4468 14.9468 14.0496 15.1998 13.5626C15.5 12.9846 15.5 12.2253 15.5 10.7067V6.10836C15.5 5.28444 15.5 4.87249 15.4097 4.53443C15.1635 3.61238 14.4433 2.89221 13.5213 2.646C13.1832 2.55572 12.7713 2.55572 11.9474 2.55572C11.8592 2.55572 11.7756 2.46966 11.6994 2.33801C11.2908 1.63244 10.6903 1 9.875 1H6.125C5.30968 1 4.70916 1.63244 4.30062 2.33801C4.2244 2.46966 4.14083 2.55572 4.05263 2.55572C3.22872 2.55572 2.81676 2.55572 2.4787 2.646C1.55666 2.89221 0.836481 3.61238 0.590271 4.53443ZM8 12.3C5.90132 12.3 4.2 10.5987 4.2 8.5C4.2 6.40132 5.90132 4.7 8 4.7C10.0987 4.7 11.8 6.40132 11.8 8.5C11.8 10.5987 10.0987 12.3 8 12.3ZM5.5 8.5C5.5 7.11929 6.61929 6 8 6C9.38071 6 10.5 7.11929 10.5 8.5C10.5 9.88071 9.38071 11 8 11C6.61929 11 5.5 9.88071 5.5 8.5Z" fill="black"/>
</svg>
