<svg width="16" height="16" viewBox="0 0 16 16" fill="none" xmlns="http://www.w3.org/2000/svg">
<path fill-rule="evenodd" clip-rule="evenodd" d="M8 13C10.7614 13 13 10.7614 13 8C13 5.23858 10.7614 3 8 3C5.23858 3 3 5.23858 3 8C3 10.7614 5.23858 13 8 13ZM6.85355 7.64645C6.65829 7.45118 6.34171 7.45118 6.14645 7.64645C5.95118 7.84171 5.95118 8.15829 6.14645 8.35355L7.14645 9.35355C7.34171 9.54882 7.65829 9.54882 7.85355 9.35355L9.85355 7.35355C10.0488 7.15829 10.0488 6.84171 9.85355 6.64645C9.65829 6.45118 9.34171 6.45118 9.14645 6.64645L7.5 8.29289L6.85355 7.64645Z" fill="black"/>
</svg>
