<svg width="16" height="16" viewBox="0 0 16 16" fill="none" xmlns="http://www.w3.org/2000/svg">
<path d="M10.8717 11.8061C11.1298 12.0642 11.5482 12.0642 11.8063 11.8061C12.0644 11.548 12.0644 11.1295 11.8063 10.8714L8.93465 7.99976L11.8064 5.12803C12.0645 4.86993 12.0645 4.45148 11.8064 4.19339C11.5483 3.93529 11.1298 3.93529 10.8717 4.19339L8.00001 7.06512L5.12827 4.19339C4.87018 3.93529 4.45173 3.93529 4.19363 4.19339C3.93554 4.45148 3.93554 4.86993 4.19363 5.12803L7.06536 7.99976L4.1937 10.8714C3.9356 11.1295 3.9356 11.548 4.1937 11.8061C4.45179 12.0642 4.87025 12.0642 5.12834 11.8061L8.00001 8.9344L10.8717 11.8061Z" fill="black"/>
</svg>
