<svg width="16" height="16" viewBox="0 0 16 16" fill="none" xmlns="http://www.w3.org/2000/svg">
<path fill-rule="evenodd" clip-rule="evenodd" d="M8 16C12.4183 16 16 12.4183 16 8C16 3.58172 12.4183 0 8 0C3.58172 0 0 3.58172 0 8C0 12.4183 3.58172 16 8 16ZM7.73197 11.5224C7.81051 11.5806 7.89559 11.6 7.98068 11.6L7.98722 11.5935C8.11158 11.5935 8.22939 11.5483 8.30138 11.4965C8.95588 11.031 9.7151 10.462 10.3565 9.77012C10.8212 9.26577 11.3317 8.64504 11.5346 7.83032C11.7637 6.91215 11.3775 5.94225 10.5856 5.47023C9.81982 5.01761 8.83153 5.14046 8.11158 5.78706L8.00031 5.89698L7.94141 5.84526C7.30654 5.22452 6.39679 5.03701 5.63757 5.36031C4.87835 5.68361 4.38093 6.47892 4.40056 7.34537C4.41365 8.06956 4.76054 8.63857 5.02234 9.00713C5.76192 10.0611 6.76331 10.8241 7.73197 11.5224Z" fill="black"/>
</svg>
