<svg width="16" height="16" viewBox="0 0 16 16" fill="none" xmlns="http://www.w3.org/2000/svg">
<path fill-rule="evenodd" clip-rule="evenodd" d="M6.29356 2.31273C6.38309 1.89576 6.97803 1.89576 7.06757 2.31273L7.47349 4.20302C7.48439 4.25377 7.52403 4.29342 7.57479 4.30432L9.46508 4.71023C9.88205 4.79977 9.88204 5.39471 9.46508 5.48425L7.57479 5.89016C7.52403 5.90106 7.48439 5.94071 7.47349 5.99147L7.06757 7.88176C6.97803 8.29872 6.38309 8.29872 6.29356 7.88175L5.88764 5.99147C5.87674 5.94071 5.83709 5.90106 5.78634 5.89016L3.89605 5.48425C3.47908 5.39471 3.47908 4.79977 3.89605 4.71023L5.78634 4.30432C5.83709 4.29342 5.87674 4.25377 5.88764 4.20302L6.29356 2.31273ZM10.7796 7.0627C10.8692 6.64573 11.4641 6.64573 11.5537 7.0627L11.9129 8.73575C11.9238 8.7865 11.9635 8.82615 12.0142 8.83705L13.6873 9.19631C14.1042 9.28585 14.1042 9.88079 13.6873 9.97033L12.0142 10.3296C11.9635 10.3405 11.9238 10.3801 11.9129 10.4309L11.5537 12.104C11.4641 12.5209 10.8692 12.5209 10.7796 12.104L10.4204 10.4309C10.4095 10.3801 10.3698 10.3405 10.3191 10.3296L8.64602 9.97033C8.22906 9.88079 8.22905 9.28585 8.64602 9.19631L10.3191 8.83705C10.3698 8.82615 10.4095 8.7865 10.4204 8.73575L10.7796 7.0627ZM4.18246 9.17379C4.272 8.75682 4.86694 8.75682 4.95648 9.17379L5.26909 10.6296C5.27999 10.6804 5.31964 10.72 5.37039 10.7309L6.82621 11.0435C7.24317 11.1331 7.24318 11.728 6.82621 11.8175L5.37039 12.1302C5.31964 12.1411 5.27999 12.1807 5.26909 12.2315L4.95648 13.6873C4.86694 14.1042 4.272 14.1042 4.18246 13.6873L3.86984 12.2315C3.85894 12.1807 3.81929 12.1411 3.76854 12.1302L2.31273 11.8175C1.89576 11.728 1.89576 11.1331 2.31273 11.0435L3.76854 10.7309C3.81929 10.72 3.85894 10.6804 3.86984 10.6296L4.18246 9.17379Z" fill="black"/>
</svg>
