<svg width="16" height="16" viewBox="0 0 16 16" fill="none" xmlns="http://www.w3.org/2000/svg">
<path fill-rule="evenodd" clip-rule="evenodd" d="M8 3.36373C7.91062 3.20874 7.80151 3.05553 7.67488 2.90462C7.48859 2.68261 7.20673 2.3724 6.85081 2.18339C6.65762 2.0808 6.39364 1.98704 6.08112 2.00147C5.7531 2.01662 5.46673 2.14666 5.24023 2.33671C5.01374 2.52676 4.83595 2.7862 4.76408 3.1066C4.69559 3.41187 4.74209 3.68812 4.80957 3.89619C4.93391 4.27953 5.19046 4.61098 5.37674 4.83298C5.42562 4.89123 5.47529 4.94697 5.52575 5.00007H4.5C3.67157 5.00007 3 5.67165 3 6.50007V10.5001C3 11.3285 3.67157 12.0001 4.5 12.0001H7.5V6.50007C7.5 6.22393 7.72386 6.00007 8 6.00007C8.27614 6.00007 8.5 6.22393 8.5 6.50007V12.0001H11.5C12.3284 12.0001 13 11.3285 13 10.5001V6.50007C13 5.67165 12.3284 5.00007 11.5 5.00007H10.4743C10.5247 4.94697 10.5744 4.89123 10.6233 4.83298C10.8095 4.61098 11.0661 4.27953 11.1904 3.89619C11.2579 3.68812 11.3044 3.41187 11.2359 3.1066C11.164 2.7862 10.9863 2.52676 10.7598 2.33671C10.5333 2.14666 10.2469 2.01662 9.91889 2.00147C9.60636 1.98704 9.34238 2.0808 9.14919 2.18339C8.79327 2.3724 8.51141 2.68261 8.32512 2.90462C8.19849 3.05553 8.08938 3.20874 8 3.36373ZM6.28186 4.34366C6.84044 4.9102 7.1686 4.63484 7.1686 4.63484C7.1686 4.63484 7.49676 4.35948 7.03582 3.71102C6.99878 3.65891 6.95664 3.60438 6.90883 3.5474C6.84775 3.4746 6.7867 3.40581 6.72588 3.34315C6.43325 3.04168 6.14573 2.88232 5.88302 3.10275C5.62032 3.32319 5.72733 3.63401 5.97341 3.97456C6.02455 4.04533 6.0817 4.11739 6.14279 4.19019C6.1906 4.24717 6.23698 4.29814 6.28186 4.34366ZM8.8314 4.63484C8.8314 4.63484 9.15956 4.9102 9.71814 4.34366C9.76302 4.29814 9.8094 4.24717 9.85721 4.19019C9.9183 4.11739 9.97545 4.04533 10.0266 3.97456C10.2727 3.63401 10.3797 3.32319 10.117 3.10275C9.85427 2.88232 9.56675 3.04168 9.27412 3.34315C9.2133 3.40581 9.15225 3.4746 9.09117 3.5474C9.04336 3.60438 9.00122 3.65891 8.96418 3.71102C8.50324 4.35948 8.8314 4.63484 8.8314 4.63484Z" fill="black"/>
</svg>
