<svg width="16" height="16" viewBox="0 0 16 16" fill="none" xmlns="http://www.w3.org/2000/svg">
<path fill-rule="evenodd" clip-rule="evenodd" d="M7.47094 3.39327C7.47094 3.10703 7.703 2.875 7.98924 2.875C10.8248 2.875 13.125 5.16968 13.125 8.00227C13.125 9.75316 12.2455 11.2985 10.9064 12.2227C10.6708 12.3852 10.348 12.3261 10.1854 12.0905C10.0228 11.8549 10.082 11.5321 10.3176 11.3696C11.3887 10.6304 12.0884 9.39766 12.0884 8.00227C12.0884 5.74388 10.254 3.91154 7.98924 3.91154C7.703 3.91154 7.47094 3.67951 7.47094 3.39327ZM4.90598 3.90047C5.13501 3.72878 5.45987 3.77525 5.63157 4.00427C5.80328 4.23329 5.7568 4.55814 5.52776 4.72983C5.35235 4.86132 5.18783 5.00654 5.03581 5.16388C4.83692 5.36973 4.50881 5.37539 4.30294 5.17652C4.09707 4.97765 4.09141 4.64954 4.2903 4.44368C4.48052 4.24679 4.68641 4.06506 4.90598 3.90047ZM3.36764 5.76125C3.49306 5.50396 3.80332 5.39705 4.06063 5.52246C4.31794 5.64787 4.42486 5.95812 4.29944 6.21542C4.0931 6.63871 3.95783 7.10281 3.90909 7.59273C3.88076 7.87756 3.62688 8.08548 3.34204 8.05716C3.05721 8.02883 2.84925 7.77497 2.87758 7.49014C2.9387 6.87569 3.10855 6.29276 3.36764 5.76125ZM3.40325 8.70709C3.67802 8.62686 3.96582 8.78454 4.04606 9.05931C4.21848 9.64972 4.52711 10.1939 4.93551 10.6542C5.12549 10.8683 5.10592 11.1958 4.8918 11.3858C4.67768 11.5758 4.3501 11.5562 4.16013 11.3421C3.65539 10.7733 3.26859 10.0949 3.05102 9.34986C2.97077 9.0751 3.12849 8.78732 3.40325 8.70709ZM5.45329 11.8283C5.58714 11.5753 5.90076 11.4787 6.15379 11.6125C6.94878 12.033 7.87332 12.2003 8.80866 12.0109C9.0892 11.9541 9.3627 12.1354 9.41953 12.416C9.47636 12.6965 9.29498 12.97 9.01444 13.0268C7.82533 13.2676 6.65802 13.0519 5.66911 12.5288C5.41608 12.395 5.31945 12.0814 5.45329 11.8283Z" fill="black"/>
<path d="M7.98793 10.25C7.93475 10.25 7.88158 10.2379 7.83249 10.2015C7.22708 9.76505 6.60121 9.28818 6.13897 8.62946C5.97534 8.39911 5.75854 8.04348 5.75036 7.59086C5.73809 7.04933 6.04898 6.55225 6.52349 6.35019C6.998 6.14813 7.5666 6.26532 7.96339 6.65329L8.0002 6.68562C8.02475 6.66137 8.0452 6.64116 8.06974 6.61691C8.51971 6.21279 9.1374 6.136 9.616 6.41889C10.111 6.7139 10.3523 7.32009 10.2091 7.89395C10.0823 8.40315 9.76326 8.79111 9.47283 9.10633C9.07195 9.53874 8.59743 9.89437 8.18837 10.1853C8.14338 10.2177 8.06974 10.246 7.99202 10.246L7.98793 10.25Z" fill="black"/>
</svg>
