<svg width="16" height="16" viewBox="0 0 16 16" fill="none" xmlns="http://www.w3.org/2000/svg">
<path d="M7.97086 12.8979C7.84086 12.8979 7.71086 12.8679 7.59086 12.7779C6.11086 11.6979 4.58086 10.5179 3.45086 8.88792C3.05086 8.31792 2.52086 7.43792 2.50086 6.31792C2.47086 4.97792 3.23086 3.74792 4.39086 3.24792C5.55086 2.74792 6.94086 3.03792 7.91086 3.99792L8.00086 4.07792C8.06086 4.01792 8.11086 3.96792 8.17086 3.90792C9.27086 2.90792 10.7809 2.71792 11.9509 3.41792C13.1609 4.14792 13.7509 5.64792 13.4009 7.06792C13.0909 8.32792 12.3109 9.28792 11.6009 10.0679C10.6209 11.1379 9.46086 12.0179 8.46086 12.7379C8.35086 12.8179 8.17086 12.8879 7.98086 12.8879L7.97086 12.8979Z" fill="black"/>
</svg>
