<svg width="16" height="16" viewBox="0 0 16 16" fill="none" xmlns="http://www.w3.org/2000/svg">
<path d="M3 7C3 5.89543 3.89543 5 5 5H11C12.1046 5 13 5.89543 13 7V12.5001C13 13.6046 12.1046 14.5001 11 14.5001H5C3.89543 14.5001 3 13.6046 3 12.5001L3 7Z" fill="black"/>
<path fill-rule="evenodd" clip-rule="evenodd" d="M9.10791 3.12154C8.25843 2.52673 7.08762 2.73318 6.49281 3.58265C5.898 4.43212 6.10445 5.60294 6.95392 6.19775L7.38442 6.49918C7.72372 6.73677 7.80618 7.20443 7.5686 7.54373C7.33101 7.88303 6.86335 7.96549 6.52405 7.72791L6.09356 7.42648C4.56548 6.3565 4.19411 4.25037 5.26408 2.72229C6.33405 1.19421 8.44019 0.822841 9.96827 1.89281L10.3988 2.19425C10.7381 2.43183 10.8205 2.89949 10.5829 3.23879C10.3454 3.5781 9.8777 3.66056 9.5384 3.42298L9.10791 3.12154Z" fill="black"/>
<path d="M5.05217 8.00505V8.00155H5.06971V8.06662C5.06971 8.08584 5.0554 8.1 5.03436 8.1C5.02034 8.1 5.00968 8.09313 5.00477 8.08415L5.01823 8.07434C5.0209 8.07925 5.02735 8.08303 5.03436 8.08303C5.04544 8.08303 5.05217 8.07588 5.05217 8.06662V8.06256C5.0467 8.06592 5.04025 8.0676 5.03408 8.0676C5.01473 8.0676 5 8.0519 5 8.0338C5 8.01571 5.01473 8 5.03408 8C5.04025 8 5.0467 8.00169 5.05217 8.00505ZM5.03483 8.05105C5.04496 8.05091 5.05208 8.04348 5.05208 8.0338C5.05208 8.02413 5.04496 8.01669 5.03483 8.01655C5.0247 8.01669 5.01758 8.02427 5.01758 8.0338C5.01758 8.04334 5.0247 8.05091 5.03483 8.05105Z" fill="black"/>
</svg>
