<svg width="16" height="16" viewBox="0 0 16 16" fill="none" xmlns="http://www.w3.org/2000/svg">
<path d="M12.6666 6.55676H11.2442V5.58158C11.2442 3.21515 10.1661 2.03193 8.00972 2.03193C7.03547 2.03193 6.26256 2.34399 5.691 2.9681C5.13243 3.57922 4.85315 4.47638 4.85315 5.65959V10.3209C4.85315 11.4261 5.11944 12.3103 5.65203 12.9734C6.18462 13.6365 6.95104 13.9681 7.95127 13.9681H8.06818C9.01645 13.9681 9.75039 13.7146 10.27 13.2075C10.8026 12.7134 11.0689 12.0633 11.0689 11.2571V10.4185C11.0689 9.96338 11.0169 9.59281 10.913 9.30676C10.8221 9.0077 10.6662 8.78016 10.4454 8.62413V9.28725C10.4454 10.1974 10.231 10.8995 9.80235 11.3936C9.38667 11.8747 8.79562 12.1153 8.02921 12.1153C7.37971 12.1153 6.83413 11.9007 6.39246 11.4717C5.9508 11.0296 5.72997 10.4445 5.72997 9.71633C5.72997 8.96219 5.94431 8.36409 6.37298 7.922C6.81464 7.47992 7.43167 7.25888 8.22406 7.25888H9.15934V6.45924C9.15934 5.57508 8.80861 5.133 8.10715 5.133C7.76941 5.133 7.5161 5.24352 7.34723 5.46456C7.17836 5.6856 7.09393 5.96515 7.09393 6.30321V6.73229H5.84688V6.34222C5.84688 5.53607 6.06122 4.92496 6.48989 4.50888C6.91856 4.09281 7.45765 3.88477 8.10715 3.88477C9.66595 3.88477 10.4454 4.71692 10.4454 6.38123V7.39541C11.7963 7.74647 12.4718 8.83217 12.4718 10.6525V11.1596C12.4718 12.5118 12.0561 13.5455 11.2248 14.2607C10.3934 14.9758 9.32821 15.3334 8.02921 15.3334H7.95127C7.06795 15.3334 6.27555 15.1383 5.57409 14.7482C4.88562 14.3712 4.34004 13.8121 3.93735 13.0709C3.53466 12.3298 3.33331 11.4521 3.33331 10.438V5.58158C3.33331 4.54139 3.53466 3.65073 3.93735 2.90959C4.35303 2.16846 4.9116 1.60936 5.61306 1.23229C6.31452 0.855221 7.11341 0.666687 8.00972 0.666687C9.4776 0.666687 10.6207 1.08926 11.4391 1.93442C12.2575 2.77957 12.6666 3.99529 12.6666 5.58158V6.55676ZM7.99024 10.867C8.40592 10.867 8.70469 10.737 8.88655 10.477C9.06841 10.2039 9.15934 9.79435 9.15934 9.24825V8.35108H8.24354C7.84085 8.35108 7.52909 8.4616 7.30826 8.68264C7.08743 8.90368 6.97702 9.22874 6.97702 9.65782C6.97702 10.0219 7.07444 10.3144 7.26929 10.5355C7.46414 10.7565 7.70446 10.867 7.99024 10.867Z" fill="black"/>
</svg>
