<svg width="16" height="16" viewBox="0 0 16 16" fill="none" xmlns="http://www.w3.org/2000/svg">
<g clip-path="url(#clip0_51_1779)">
<path d="M6.25 1.75C6.25 0.783502 7.0335 0 8 0C8.9665 0 9.75 0.783502 9.75 1.75V14.25C9.75 15.2165 8.9665 16 8 16C7.0335 16 6.25 15.2165 6.25 14.25V1.75Z" fill="black"/>
<path d="M12.25 5.75C12.25 4.7835 13.0335 4 14 4C14.9665 4 15.75 4.7835 15.75 5.75V10.25C15.75 11.2165 14.9665 12 14 12C13.0335 12 12.25 11.2165 12.25 10.25V5.75Z" fill="black"/>
<path d="M0.25 5.75C0.25 4.7835 1.0335 4 2 4C2.9665 4 3.75 4.7835 3.75 5.75V10.25C3.75 11.2165 2.9665 12 2 12C1.0335 12 0.25 11.2165 0.25 10.25V5.75Z" fill="black"/>
</g>
<defs>
<clipPath id="clip0_51_1779">
<rect width="16" height="16" fill="white"/>
</clipPath>
</defs>
</svg>
