<svg width="16" height="16" viewBox="0 0 16 16" fill="none" xmlns="http://www.w3.org/2000/svg">
<path fill-rule="evenodd" clip-rule="evenodd" d="M3 7.99982C3.0001 7.53681 3.36202 7.16155 3.80838 7.16165L10.2402 7.16312L8.57056 5.43117C8.25493 5.10377 8.25493 4.57295 8.57055 4.24555C8.88618 3.91815 9.3979 3.91815 9.71352 4.24555L12.7633 7.40912C12.9149 7.56641 13.0001 7.77975 13 8.00218C12.9999 8.22462 12.9147 8.43791 12.7629 8.5951L9.71317 11.7548C9.39736 12.082 8.88563 12.0817 8.57021 11.7541C8.25478 11.4265 8.25509 10.8957 8.5709 10.5685L10.2394 8.83984L3.80802 8.83836C3.36166 8.83826 2.9999 8.46283 3 7.99982Z" fill="black"/>
</svg>
