<svg width="16" height="16" viewBox="0 0 16 16" fill="none" xmlns="http://www.w3.org/2000/svg">
<path d="M3 6.50001C3 5.94773 3.44772 5.50001 4 5.50001H5.5L7.64645 3.35356C7.96143 3.03858 8.5 3.26167 8.5 3.70712V12.2929C8.5 12.7384 7.96143 12.9614 7.64645 12.6465L5.5 10.5H4C3.44772 10.5 3 10.0523 3 9.50001V6.50001Z" fill="black"/>
<path d="M12.3738 9.80848C12.6319 10.0666 13.0504 10.0666 13.3085 9.80848C13.5666 9.55039 13.5666 9.13194 13.3085 8.87384L12.4357 8.00106L13.3085 7.12822C13.5666 6.87013 13.5666 6.45168 13.3085 6.19358C13.0504 5.93549 12.632 5.93549 12.3739 6.19358L11.501 7.06642L10.6282 6.19358C10.3701 5.93549 9.95166 5.93549 9.69357 6.19358C9.43548 6.45168 9.43548 6.87013 9.69357 7.12822L10.5664 8.00106L9.69362 8.87384C9.43553 9.13194 9.43553 9.55039 9.69362 9.80848C9.95172 10.0666 10.3702 10.0666 10.6283 9.80848L11.501 8.9357L12.3738 9.80848Z" fill="black"/>
</svg>
