<svg width="16" height="16" viewBox="0 0 16 16" fill="none" xmlns="http://www.w3.org/2000/svg">
<path d="M4.66666 9.00001C5.21894 9.00001 5.66666 8.55229 5.66666 8C5.66666 7.44772 5.21894 7 4.66666 7C4.11437 7 3.66666 7.44772 3.66666 8C3.66666 8.55229 4.11437 9.00001 4.66666 9.00001Z" fill="black"/>
<path d="M8.99999 8C8.99999 8.55229 8.55227 9.00001 7.99999 9.00001C7.44771 9.00001 6.99999 8.55229 6.99999 8C6.99999 7.44772 7.44771 7 7.99999 7C8.55227 7 8.99999 7.44772 8.99999 8Z" fill="black"/>
<path d="M12.3333 8C12.3333 8.55229 11.8856 9.00001 11.3333 9.00001C10.781 9.00001 10.3333 8.55229 10.3333 8C10.3333 7.44772 10.781 7 11.3333 7C11.8856 7 12.3333 7.44772 12.3333 8Z" fill="black"/>
</svg>
