<svg width="16" height="16" viewBox="0 0 16 16" fill="none" xmlns="http://www.w3.org/2000/svg">
<g clip-path="url(#clip0_51_1749)">
<path d="M10.7728 0.772553C10.4604 0.460134 9.95386 0.460134 9.64144 0.772553C9.04544 1.36855 8.73369 2.14115 8.70617 2.9219L4.93158 6.19322C3.74203 6.08456 2.5147 6.48557 1.60403 7.39623C1.27859 7.72167 1.27859 8.24931 1.60403 8.57475L4.19651 11.1672L1.01473 14.349C0.819471 14.5443 0.81947 14.8608 1.01473 15.0561C1.21 15.2514 1.52658 15.2514 1.72184 15.0561L4.90362 11.8743L7.49659 14.4673C7.82202 14.7927 8.34966 14.7927 8.6751 14.4673C9.58601 13.5564 9.98698 12.3286 9.87802 11.1388L13.1489 7.36467C13.9297 7.33716 14.7023 7.0254 15.2983 6.42941C15.6107 6.11699 15.6107 5.61046 15.2983 5.29804L10.7728 0.772553Z" fill="black"/>
</g>
<defs>
<clipPath id="clip0_51_1749">
<rect width="16" height="16" fill="white"/>
</clipPath>
</defs>
</svg>
