<svg width="16" height="16" viewBox="0 0 16 16" fill="none" xmlns="http://www.w3.org/2000/svg">
<path d="M2 8C2 7.58579 2.33579 7.25 2.75 7.25H13.25C13.6642 7.25 14 7.58579 14 8C14 8.41421 13.6642 8.75 13.25 8.75H2.75C2.33579 8.75 2 8.41421 2 8Z" fill="black"/>
<path d="M2 4C2 3.58579 2.33579 3.25 2.75 3.25H6.25C6.66421 3.25 7 3.58579 7 4C7 4.41421 6.66421 4.75 6.25 4.75H2.75C2.33579 4.75 2 4.41421 2 4Z" fill="black"/>
<path d="M2 12C2 11.5858 2.33579 11.25 2.75 11.25H10.25C10.6642 11.25 11 11.5858 11 12C11 12.4142 10.6642 12.75 10.25 12.75H2.75C2.33579 12.75 2 12.4142 2 12Z" fill="black"/>
</svg>
