<svg width="16" height="16" viewBox="0 0 16 16" fill="none" xmlns="http://www.w3.org/2000/svg">
<path fill-rule="evenodd" clip-rule="evenodd" d="M10.2779 11.1286C9.40732 11.8156 8.30797 12.2257 7.11285 12.2257C4.2891 12.2257 2 9.93659 2 7.11285C2 4.2891 4.2891 2 7.11285 2C9.93659 2 12.2257 4.2891 12.2257 7.11285C12.2257 8.30797 11.8156 9.40732 11.1286 10.2779L13.8238 12.9732C14.0587 13.2081 14.0587 13.5889 13.8238 13.8238C13.5889 14.0587 13.2081 14.0587 12.9732 13.8238L10.2779 11.1286ZM11.0227 7.11285C11.0227 9.27218 9.27218 11.0227 7.11285 11.0227C4.95351 11.0227 3.20302 9.27218 3.20302 7.11285C3.20302 4.95351 4.95351 3.20302 7.11285 3.20302C9.27218 3.20302 11.0227 4.95351 11.0227 7.11285Z" fill="black"/>
</svg>
