<svg width="16" height="16" viewBox="0 0 16 16" fill="none" xmlns="http://www.w3.org/2000/svg">
<path d="M3 6.50001C3 5.94773 3.44772 5.50001 4 5.50001H5.5L7.64645 3.35356C7.96143 3.03858 8.5 3.26167 8.5 3.70712V12.2929C8.5 12.7384 7.96143 12.9614 7.64645 12.6465L5.5 10.5H4C3.44772 10.5 3 10.0523 3 9.50001V6.50001Z" fill="black"/>
<path fill-rule="evenodd" clip-rule="evenodd" d="M12.0495 4.40036C12.3807 4.15157 12.8509 4.21837 13.0997 4.54955C13.8216 5.51055 14.25 6.7062 14.25 8.00001C14.25 9.29385 13.8218 10.4898 13.0996 11.451C12.8508 11.7822 12.3807 11.8489 12.0495 11.6001C11.7183 11.3513 11.6516 10.8812 11.9004 10.55C12.4341 9.83968 12.75 8.95782 12.75 8.00001C12.75 7.04245 12.434 6.16085 11.9003 5.45047C11.6516 5.11929 11.7184 4.64914 12.0495 4.40036Z" fill="black"/>
<path fill-rule="evenodd" clip-rule="evenodd" d="M9.43903 5.50221C9.71396 5.19239 10.188 5.16411 10.4978 5.43904C11.2437 6.10096 11.75 6.98434 11.75 7.99985C11.75 9.01532 11.244 9.89893 10.4978 10.561C10.1879 10.8359 9.71389 10.8076 9.43899 10.4978C9.16408 10.1879 9.1924 9.71391 9.50224 9.439C10.0118 8.98685 10.25 8.48536 10.25 7.99985C10.25 7.51457 10.0118 7.01323 9.50219 6.56098C9.19238 6.28605 9.1641 5.81202 9.43903 5.50221Z" fill="black"/>
</svg>
