<svg width="16" height="16" viewBox="0 0 16 16" fill="none" xmlns="http://www.w3.org/2000/svg">
<path d="M7.25 5.75C7.25 5.33579 7.58579 5 8 5C8.41421 5 8.75 5.33579 8.75 5.75V10.25C8.75 10.6642 8.41421 11 8 11C7.58579 11 7.25 10.6642 7.25 10.25V5.75Z" fill="black"/>
<path d="M10.25 6.75C10.25 6.33579 10.5858 6 11 6C11.4142 6 11.75 6.33579 11.75 6.75V9.25C11.75 9.66421 11.4142 10 11 10C10.5858 10 10.25 9.66421 10.25 9.25V6.75Z" fill="black"/>
<path d="M5 6C4.58579 6 4.25 6.33579 4.25 6.75V9.25C4.25 9.66421 4.58579 10 5 10C5.41421 10 5.75 9.66421 5.75 9.25V6.75C5.75 6.33579 5.41421 6 5 6Z" fill="black"/>
</svg>
