<svg width="16" height="16" viewBox="0 0 16 16" fill="none" xmlns="http://www.w3.org/2000/svg">
<path d="M7.53834 2.10996C7.70914 1.69932 8.29086 1.69932 8.46166 2.10996L9.86649 5.48759C9.9385 5.6607 10.1013 5.77899 10.2882 5.79397L13.9346 6.08631C14.378 6.12185 14.5577 6.6751 14.2199 6.96444L11.4418 9.34425C11.2994 9.46623 11.2372 9.65762 11.2807 9.84L12.1295 13.3983C12.2327 13.8309 11.762 14.1728 11.3825 13.941L8.26063 12.0342C8.10062 11.9365 7.89938 11.9365 7.73937 12.0342L4.61752 13.941C4.23797 14.1728 3.76735 13.8309 3.87054 13.3983L4.71932 9.84C4.76283 9.65762 4.70064 9.46623 4.55825 9.34425L1.78005 6.96444C1.44229 6.6751 1.62205 6.12185 2.06538 6.08631L5.7118 5.79397C5.8987 5.77899 6.0615 5.6607 6.13351 5.48759L7.53834 2.10996Z" fill="black"/>
</svg>
