<svg width="16" height="16" viewBox="0 0 16 16" fill="none" xmlns="http://www.w3.org/2000/svg">
<path fill-rule="evenodd" clip-rule="evenodd" d="M10.8182 9H9.18182C7.14841 9 5.5 10.4652 5.5 12.2727C5.5 12.6744 5.82596 13 6.22763 13C9.54182 13 11.7676 13 13.7729 13C14.1746 13 14.5 12.6744 14.5 12.2727C14.5 10.4652 12.8516 9 10.8182 9Z" fill="black"/>
<path fill-rule="evenodd" clip-rule="evenodd" d="M7.25 5.5C7.25 3.98122 8.48122 2.75 10 2.75C11.5188 2.75 12.75 3.98122 12.75 5.5C12.75 7.01878 11.5188 8.25 10 8.25C8.48122 8.25 7.25 7.01878 7.25 5.5Z" fill="black"/>
<path d="M2.75 10.25C2.75 10.6642 3.08579 11 3.5 11C3.91421 11 4.25 10.6642 4.25 10.25V8.75H5.75C6.16421 8.75 6.5 8.41421 6.5 8C6.5 7.58579 6.16421 7.25 5.75 7.25H4.25V5.75C4.25 5.33579 3.91421 5 3.5 5C3.08579 5 2.75 5.33579 2.75 5.75V7.25H1.25C0.835786 7.25 0.5 7.58579 0.5 8C0.5 8.41421 0.835786 8.75 1.25 8.75H2.75V10.25Z" fill="black"/>
</svg>
