<svg width="16" height="16" viewBox="0 0 16 16" fill="none" xmlns="http://www.w3.org/2000/svg">
<path d="M2.75 10.25C2.75 10.6642 3.08579 11 3.5 11C3.91421 11 4.25 10.6642 4.25 10.25V8.75H5.75C6.16421 8.75 6.5 8.41421 6.5 8C6.5 7.58579 6.16421 7.25 5.75 7.25H4.25V5.75C4.25 5.33579 3.91421 5 3.5 5C3.08579 5 2.75 5.33579 2.75 5.75V7.25H1.25C0.835786 7.25 0.5 7.58579 0.5 8C0.5 8.41421 0.835786 8.75 1.25 8.75H2.75V10.25Z" fill="black"/>
<path fill-rule="evenodd" clip-rule="evenodd" d="M9.92582 8.21296C8.27919 8.21296 6.94434 6.87811 6.94434 5.23148C6.94434 3.58486 8.27919 2.25 9.92582 2.25C11.5724 2.25 12.9073 3.58486 12.9073 5.23148C12.9073 6.87811 11.5724 8.21296 9.92582 8.21296ZM9.92582 3.75C9.10762 3.75 8.44434 4.41328 8.44434 5.23148C8.44434 6.04968 9.10762 6.71296 9.92582 6.71296C10.744 6.71296 11.4073 6.04968 11.4073 5.23148C11.4073 4.41328 10.744 3.75 9.92582 3.75Z" fill="black"/>
<path fill-rule="evenodd" clip-rule="evenodd" d="M5.60156 12.3333C5.60156 10.3543 7.20588 8.75 9.1849 8.75H10.6664C12.6454 8.75 14.2497 10.3543 14.2497 12.3333V12.5185C14.2497 12.9634 13.8891 13.3241 13.4442 13.3241C12.9993 13.3241 12.6386 12.9634 12.6386 12.5185V12.3333C12.6386 11.2441 11.7556 10.3611 10.6664 10.3611H9.1849C8.09567 10.3611 7.21267 11.2441 7.21267 12.3333V12.5185C7.21267 12.9634 6.85201 13.3241 6.40712 13.3241C5.96222 13.3241 5.60156 12.9634 5.60156 12.5185V12.3333Z" fill="black"/>
</svg>
