<svg width="16" height="16" viewBox="0 0 16 16" fill="none" xmlns="http://www.w3.org/2000/svg">
<path fill-rule="evenodd" clip-rule="evenodd" d="M8.81818 9H7.18182C5.14841 9 3.5 10.4652 3.5 12.2727C3.5 12.6744 3.82596 13 4.22763 13C7.54182 13 9.76763 13 11.7729 13C12.1746 13 12.5 12.6744 12.5 12.2727C12.5 10.4652 10.8516 9 8.81818 9Z" fill="black"/>
<path fill-rule="evenodd" clip-rule="evenodd" d="M5.25 5.5C5.25 3.98122 6.48122 2.75 8 2.75C9.51878 2.75 10.75 3.98122 10.75 5.5C10.75 7.01878 9.51878 8.25 8 8.25C6.48122 8.25 5.25 7.01878 5.25 5.5Z" fill="black"/>
</svg>
