<svg width="16" height="16" viewBox="0 0 16 16" fill="none" xmlns="http://www.w3.org/2000/svg">
<path d="M8.11522 14.5C6.17562 14.487 4.68452 13.8474 3.68222 12.5994C2.79172 11.4879 2.33152 9.9422 2.31592 8.0052V7.9961C2.33152 6.0578 2.79172 4.5134 3.68352 3.4019C4.68452 2.1526 6.17692 1.513 8.11522 1.5H8.12302C9.61022 1.5104 10.8543 1.8926 11.8202 2.6362C12.7289 3.3356 13.3685 4.3314 13.7208 5.5976L12.6158 5.9057C12.0178 3.7607 10.5046 2.6648 8.11782 2.6479C6.54222 2.6596 5.35012 3.1549 4.57532 4.1195C3.85122 5.023 3.47682 6.3282 3.46252 8C3.47682 9.6718 3.85122 10.977 4.57662 11.8805C5.35142 12.8464 6.54352 13.3417 8.11912 13.3521C9.54002 13.3417 10.4799 13.0102 11.2612 12.2445C12.153 11.3709 12.1374 10.2984 11.8514 9.6458C11.6837 9.261 11.3782 8.9412 10.9661 8.6981C10.8621 9.43 10.6294 10.0228 10.2706 10.47C9.79092 11.0667 9.11102 11.393 8.25042 11.4398C7.59912 11.4749 6.97122 11.3215 6.48502 11.0056C5.90912 10.6325 5.57242 10.0631 5.53602 9.4001C5.50092 8.7553 5.75702 8.1625 6.25622 7.7309C6.73332 7.3188 7.40412 7.077 8.19712 7.0315C8.78082 6.999 9.32812 7.025 9.83252 7.1082C9.76492 6.7065 9.62972 6.3867 9.42692 6.1566C9.14872 5.8394 8.71842 5.6782 8.14902 5.6743C8.14382 5.6743 8.13862 5.6743 8.13342 5.6743C7.67582 5.6743 7.05442 5.8004 6.65922 6.3893L5.70762 5.751C6.23802 4.9632 7.09862 4.529 8.13342 4.529C8.14122 4.529 8.14902 4.529 8.15682 4.529C9.88712 4.5394 10.918 5.5989 11.0207 7.4475C11.0792 7.4722 11.1377 7.4982 11.1949 7.5242C12.0022 7.9038 12.5924 8.4784 12.9031 9.1869C13.3347 10.1736 13.375 11.7817 12.0646 13.0648C11.0623 14.045 9.84682 14.4883 8.12302 14.5H8.11522ZM8.66252 8.1677C8.53122 8.1677 8.39862 8.1716 8.26212 8.1794C7.26762 8.2353 6.64752 8.6916 6.68262 9.3403C6.71902 10.0202 7.46912 10.3361 8.19062 10.2971C8.85362 10.262 9.71682 10.0033 9.86242 8.2873C9.49582 8.208 9.09412 8.1677 8.66252 8.1677Z" fill="black" stroke="black" stroke-width="0.2"/>
</svg>
