<svg width="23" height="23" viewBox="0 0 23 23" fill="none" xmlns="http://www.w3.org/2000/svg">
<path fill-rule="evenodd" clip-rule="evenodd" d="M16.8676 20.1225C15.2431 21.1532 13.3162 21.75 11.25 21.75C5.45101 21.75 0.75 17.049 0.75 11.25C0.75 5.45101 5.45101 0.75 11.25 0.75C17.049 0.75 21.75 5.45101 21.75 11.25C21.75 13.3162 21.1532 15.2431 20.1225 16.8675L21.75 21.75L16.8676 20.1225Z" fill="black"/>
<path d="M16.8676 20.1225L17.1047 19.411C16.8908 19.3397 16.6562 19.3684 16.4658 19.4892L16.8676 20.1225ZM20.1225 16.8675L19.4892 16.4657C19.3684 16.6561 19.3397 16.8908 19.411 17.1047L20.1225 16.8675ZM21.75 21.75L21.5128 22.4615C21.7823 22.5513 22.0795 22.4812 22.2803 22.2803C22.4812 22.0794 22.5513 21.7823 22.4615 21.5128L21.75 21.75ZM11.25 22.5C13.4627 22.5 15.5283 21.8604 17.2694 20.7558L16.4658 19.4892C14.9579 20.4459 13.1698 21 11.25 21V22.5ZM0 11.25C0 17.4632 5.0368 22.5 11.25 22.5V21C5.86522 21 1.5 16.6348 1.5 11.25H0ZM11.25 0C5.0368 0 0 5.0368 0 11.25H1.5C1.5 5.86522 5.86522 1.5 11.25 1.5V0ZM22.5 11.25C22.5 5.0368 17.4632 0 11.25 0V1.5C16.6348 1.5 21 5.86522 21 11.25H22.5ZM20.7558 17.2693C21.8604 15.5283 22.5 13.4627 22.5 11.25H21C21 13.1698 20.4459 14.9579 19.4892 16.4657L20.7558 17.2693ZM19.411 17.1047L21.0385 21.9871L22.4615 21.5128L20.834 16.6304L19.411 17.1047ZM21.9872 21.0385L17.1047 19.411L16.6304 20.834L21.5128 22.4615L21.9872 21.0385Z" fill="black"/>
</svg>
