<svg width="24" height="24" viewBox="0 0 24 24" fill="none" xmlns="http://www.w3.org/2000/svg">
<path d="M1.32733 10.351L2 11.0909L2 11.0909L1.32733 10.351ZM9.38095 22.6485V23.6485H10.381V22.6485H9.38095ZM14.619 22.6485H13.619V23.6485H14.619V22.6485ZM22.6727 10.351L22 11.0909L22 11.0909L22.6727 10.351ZM12.6727 1.26006L13.3453 0.52012L13.3453 0.520119L12.6727 1.26006ZM11.3273 1.26006L12 2V2L11.3273 1.26006ZM2 11.0909L2 11.0909L0.654655 9.61103C0.237705 9.99007 0 10.5274 0 11.0909H2ZM2 21.6485V11.0909H0V21.6485H2ZM2 21.6485H2H0C0 22.7531 0.895431 23.6485 2 23.6485V21.6485ZM9.38095 21.6485H2V23.6485H9.38095V21.6485ZM10.381 22.6485V16.2676H8.38095V22.6485H10.381ZM10.381 16.2676C10.381 15.3734 11.1058 14.6485 12 14.6485V12.6485C10.0013 12.6485 8.38095 14.2688 8.38095 16.2676H10.381ZM12 14.6485C12.8942 14.6485 13.619 15.3734 13.619 16.2676H15.619C15.619 14.2688 13.9987 12.6485 12 12.6485V14.6485ZM13.619 16.2676V22.6485H15.619V16.2676H13.619ZM22 21.6485H14.619V23.6485H22V21.6485ZM22 21.6485V23.6485C23.1046 23.6485 24 22.7531 24 21.6485H22ZM22 11.0909V21.6485H24V11.0909H22ZM22 11.0909L22 11.0909H24C24 10.5274 23.7623 9.99007 23.3453 9.61103L22 11.0909ZM12 2L22 11.0909L23.3453 9.61103L13.3453 0.52012L12 2ZM12 2L12 2L13.3453 0.520119C12.5825 -0.173373 11.4175 -0.173373 10.6547 0.52012L12 2ZM2 11.0909L12 2L10.6547 0.52012L0.654654 9.61103L2 11.0909Z" fill="black"/>
</svg>
