<svg width="24" height="24" viewBox="0 0 24 24" fill="none" xmlns="http://www.w3.org/2000/svg">
<path fill-rule="evenodd" clip-rule="evenodd" d="M11.9573 0H12H12.0427C13.8725 -5.48363e-06 15.3041 -9.65595e-06 16.4558 0.0896698C17.6274 0.180891 18.5929 0.369357 19.4711 0.792249C21.1039 1.57859 22.4214 2.89607 23.2078 4.52893C23.6306 5.40707 23.8191 6.37259 23.9103 7.54416C24 8.69593 24 10.1276 24 11.9573V12V12.0427C24 13.8724 24 15.3041 23.9103 16.4558C23.8191 17.6274 23.6306 18.5929 23.2078 19.4711C22.4214 21.1039 21.1039 22.4214 19.4711 23.2078C18.5929 23.6306 17.6274 23.8191 16.4558 23.9103C15.3041 24 13.8724 24 12.0427 24H12H11.9573C10.1276 24 8.69593 24 7.54416 23.9103C6.37259 23.8191 5.40707 23.6306 4.52893 23.2078C2.89607 22.4214 1.57859 21.1039 0.792249 19.4711C0.369357 18.5929 0.180891 17.6274 0.0896698 16.4558C-9.65595e-06 15.3041 -5.48363e-06 13.8725 0 12.0427V12V11.9573C-5.48363e-06 10.1275 -9.65595e-06 8.69592 0.0896698 7.54416C0.180891 6.37259 0.369357 5.40707 0.792249 4.52893C1.57859 2.89607 2.89607 1.57859 4.52893 0.792249C5.40707 0.369357 6.37259 0.180891 7.54416 0.0896698C8.69592 -9.65595e-06 10.1275 -5.48363e-06 11.9573 0ZM7.69941 2.08363C6.64521 2.16572 5.95803 2.32386 5.3967 2.59419C4.17205 3.18395 3.18395 4.17205 2.59419 5.3967C2.32386 5.95803 2.16572 6.64521 2.08363 7.69941C2.00071 8.76448 2 10.1184 2 12C2 13.8816 2.00071 15.2355 2.08363 16.3006C2.16572 17.3548 2.32386 18.042 2.59419 18.6033C3.18395 19.8279 4.17205 20.8161 5.3967 21.4058C5.95803 21.6761 6.64521 21.8343 7.69941 21.9164C8.76448 21.9993 10.1184 22 12 22C13.8816 22 15.2355 21.9993 16.3006 21.9164C17.3548 21.8343 18.042 21.6761 18.6033 21.4058C19.8279 20.8161 20.8161 19.8279 21.4058 18.6033C21.6761 18.042 21.8343 17.3548 21.9164 16.3006C21.9993 15.2355 22 13.8816 22 12C22 10.1184 21.9993 8.76448 21.9164 7.69941C21.8343 6.64521 21.6761 5.95803 21.4058 5.3967C20.8161 4.17205 19.8279 3.18395 18.6033 2.59419C18.042 2.32386 17.3548 2.16572 16.3006 2.08363C15.2355 2.00071 13.8816 2 12 2C10.1184 2 8.76448 2.00071 7.69941 2.08363ZM12 6C12.5523 6 13 6.44772 13 7V11H17C17.5523 11 18 11.4477 18 12C18 12.5523 17.5523 13 17 13H13V17C13 17.5523 12.5523 18 12 18C11.4477 18 11 17.5523 11 17V13H7C6.44772 13 6 12.5523 6 12C6 11.4477 6.44772 11 7 11H11V7C11 6.44772 11.4477 6 12 6Z" fill="black"/>
</svg>
