<svg width="23" height="24" viewBox="0 0 23 24" fill="none" xmlns="http://www.w3.org/2000/svg">
<path fill-rule="evenodd" clip-rule="evenodd" d="M10 0C4.47715 0 0 4.47715 0 10C0 15.5228 4.47715 20 10 20C12.145 20 14.1323 19.3246 15.7608 18.175L15.7929 18.2071L20.2929 22.7071L21 23.4142L22.4142 22L21.7071 21.2929L17.2752 16.8609C18.9645 15.0703 20 12.6561 20 10C20 4.47715 15.5228 0 10 0ZM2 10C2 5.58172 5.58172 2 10 2C14.4183 2 18 5.58172 18 10C18 14.4183 14.4183 18 10 18C5.58172 18 2 14.4183 2 10Z" fill="black"/>
</svg>
