<svg width="24" height="24" viewBox="0 0 24 24" fill="none" xmlns="http://www.w3.org/2000/svg">
<path d="M17 13.9999C17 13.687 16.6291 13.5389 16.3497 13.6799C15.944 13.8846 15.4855 13.9999 15 13.9999C13.3432 13.9999 12 12.6568 12 10.9999C12 10.5145 12.1153 10.056 12.32 9.65027C12.461 9.37088 12.313 8.99995 12 8.99995C9.23858 8.99995 7.00001 11.2385 7.00001 13.9999C7.00001 16.7614 9.23858 18.9999 12 18.9999C14.7614 18.9999 17 16.7614 17 13.9999Z" fill="black"/>
<path fill-rule="evenodd" clip-rule="evenodd" d="M2.30295 11.9572C4.08182 6.69159 9.43665 3.64531 14.6683 5.12187C18.0669 6.08107 20.6032 8.72343 21.6969 11.9568C21.8641 12.451 21.6237 13.0078 21.133 13.192C20.6354 13.3787 20.1028 13.1003 19.9339 12.6009C19.0321 9.93512 16.9499 7.77798 14.1782 6.99571C9.92009 5.79392 5.53029 8.26684 4.06623 12.6006C3.89752 13.1 3.36505 13.3787 2.86741 13.1921C2.37663 13.0082 2.13598 12.4514 2.30295 11.9572Z" fill="black"/>
</svg>
