<svg width="24" height="24" viewBox="0 0 24 24" fill="none" xmlns="http://www.w3.org/2000/svg">
<path d="M5.75 13.25C5.75 13.6642 6.08579 14 6.5 14C6.91421 14 7.25 13.6642 7.25 13.25V11.75H8.75C9.16421 11.75 9.5 11.4142 9.5 11C9.5 10.5858 9.16421 10.25 8.75 10.25H7.25V8.75C7.25 8.33579 6.91421 8 6.5 8C6.08579 8 5.75 8.33579 5.75 8.75V10.25H4.25C3.83579 10.25 3.5 10.5858 3.5 11C3.5 11.4142 3.83579 11.75 4.25 11.75H5.75V13.25Z" fill="black"/>
<path fill-rule="evenodd" clip-rule="evenodd" d="M11 8.5C11 10.433 12.567 12 14.5 12C16.433 12 18 10.433 18 8.5C18 6.567 16.433 5 14.5 5C12.567 5 11 6.567 11 8.5ZM12.5 8.5C12.5 7.39543 13.3954 6.5 14.5 6.5C15.6046 6.5 16.5 7.39543 16.5 8.5C16.5 9.60457 15.6046 10.5 14.5 10.5C13.3954 10.5 12.5 9.60457 12.5 8.5Z" fill="black"/>
<path d="M9 17.5C9 15.0147 11.0147 13 13.5 13H15.5C17.9853 13 20 15.0147 20 17.5V17.75C20 18.1642 19.6642 18.5 19.25 18.5C18.8358 18.5 18.5 18.1642 18.5 17.75V17.5C18.5 15.8431 17.1569 14.5 15.5 14.5H13.5C11.8431 14.5 10.5 15.8431 10.5 17.5V17.75C10.5 18.1642 10.1642 18.5 9.75 18.5C9.33579 18.5 9 18.1642 9 17.75V17.5Z" fill="black"/>
</svg>
