<svg width="24" height="24" viewBox="0 0 24 24" fill="none" xmlns="http://www.w3.org/2000/svg">
<path d="M11.9759 16.5C11.8695 16.5 11.7631 16.4758 11.665 16.403C10.4541 15.5301 9.20241 14.5764 8.27793 13.2589C7.95068 12.7982 7.51707 12.087 7.50071 11.1817C7.47617 10.0987 8.09794 9.10451 9.04697 8.70038C9.99599 8.29626 11.1332 8.53065 11.9268 9.30657L12.0004 9.37123C12.0495 9.32273 12.0904 9.28232 12.1395 9.23383C13.0394 8.42558 14.2748 8.27201 15.232 8.83778C16.2219 9.42781 16.7046 10.6402 16.4183 11.7879C16.1647 12.8063 15.5265 13.5822 14.9456 14.2127C14.1439 15.0775 13.1949 15.7887 12.3767 16.3707C12.2867 16.4353 12.1395 16.4919 11.984 16.4919L11.9759 16.5Z" fill="black"/>
<path fill-rule="evenodd" clip-rule="evenodd" d="M11.1008 1.75122C11.1008 1.26797 11.4926 0.876221 11.9758 0.876221C18.1311 0.876221 23.1236 5.85772 23.1236 12.0059C23.1236 15.8062 21.2152 19.1606 18.3078 21.1671C17.9101 21.4416 17.3652 21.3417 17.0907 20.944C16.8162 20.5463 16.9161 20.0013 17.3138 19.7268C19.7688 18.0326 21.3736 15.206 21.3736 12.0059C21.3736 6.82711 17.1675 2.62622 11.9758 2.62622C11.4926 2.62622 11.1008 2.23447 11.1008 1.75122ZM5.28312 3.10224C5.66978 2.81237 6.21821 2.89083 6.50808 3.27749C6.79795 3.66415 6.71949 4.21258 6.33283 4.50245C5.93073 4.80389 5.55361 5.13679 5.20516 5.49748C4.86939 5.84503 4.31546 5.85458 3.9679 5.51882C3.62035 5.18305 3.6108 4.62912 3.94656 4.28156C4.35952 3.85411 4.80647 3.45956 5.28312 3.10224ZM1.94384 7.1417C2.15558 6.7073 2.67937 6.5268 3.11376 6.73854C3.54816 6.95028 3.72866 7.47407 3.51692 7.90846C3.04371 8.8793 2.73348 9.94377 2.62175 11.0672C2.57392 11.5481 2.14532 11.8992 1.66444 11.8513C1.18356 11.8035 0.832509 11.3749 0.880338 10.894C1.01299 9.56033 1.38158 8.29523 1.94384 7.1417ZM1.85105 13.8411C2.31492 13.7056 2.80078 13.9719 2.93624 14.4358C3.33196 15.7909 4.03956 17.0376 4.97399 18.0908C5.29472 18.4523 5.26168 19.0053 4.90021 19.326C4.53873 19.6468 3.9857 19.6137 3.66497 19.2523C2.5679 18.0158 1.72834 16.5425 1.2564 14.9263C1.12094 14.4624 1.38717 13.9766 1.85105 13.8411ZM6.57978 20.6488C6.80573 20.2216 7.3352 20.0585 7.76237 20.2844C9.58309 21.2475 11.7051 21.6327 13.8541 21.1975C14.3277 21.1016 14.7894 21.4077 14.8853 21.8814C14.9813 22.355 14.6751 22.8167 14.2015 22.9127C11.6241 23.4347 9.09221 22.9676 6.94411 21.8314C6.51694 21.6054 6.35383 21.0759 6.57978 20.6488Z" fill="black"/>
</svg>
