<svg width="24" height="24" viewBox="0 0 24 24" fill="none" xmlns="http://www.w3.org/2000/svg">
<path fill-rule="evenodd" clip-rule="evenodd" d="M8.00001 8.99999C8.00001 6.79085 9.79087 4.99999 12 4.99999C14.2091 4.99999 16 6.79085 16 8.99999C16 11.2091 14.2091 13 12 13C9.79087 13 8.00001 11.2091 8.00001 8.99999ZM12 6.99999C10.8954 6.99999 10 7.89542 10 8.99999C10 10.1046 10.8954 11 12 11C13.1046 11 14 10.1046 14 8.99999C14 7.89542 13.1046 6.99999 12 6.99999Z" fill="black"/>
<path fill-rule="evenodd" clip-rule="evenodd" d="M12.4523 21.7231C12.158 21.8162 11.842 21.8162 11.5477 21.7231C11.3106 21.6481 11.1388 21.5209 11.0257 21.4251C10.9282 21.3425 10.8259 21.2402 10.7403 21.1545L9.58579 20H6.1808C5.6448 20 5.18235 20 4.8017 19.9684C4.39982 19.935 4.00034 19.8613 3.61708 19.6622C3.06915 19.3776 2.62239 18.9309 2.33776 18.3829C2.13867 17.9997 2.06495 17.6002 2.03158 17.1983C1.99997 16.8176 1.99998 16.3552 2 15.8192V6.18083C1.99998 5.64481 1.99997 5.18237 2.03158 4.8017C2.06495 4.39982 2.13867 4.00034 2.33776 3.61708C2.62239 3.06915 3.06915 2.62239 3.61708 2.33776C4.00034 2.13867 4.39982 2.06495 4.8017 2.03158C5.18237 1.99997 5.64477 1.99998 6.18079 2H17.8192C18.3552 1.99998 18.8176 1.99997 19.1983 2.03158C19.6002 2.06495 19.9997 2.13867 20.3829 2.33776C20.9309 2.62239 21.3776 3.06915 21.6622 3.61708C21.8613 4.00034 21.935 4.39982 21.9684 4.8017C22 5.18235 22 5.64473 22 6.18072V15.8192C22 16.3552 22 16.8177 21.9684 17.1983C21.935 17.6002 21.8613 17.9997 21.6622 18.3829C21.3776 18.9309 20.9309 19.3776 20.3829 19.6622C19.9997 19.8613 19.6002 19.935 19.1983 19.9684C18.8176 20 18.3553 20 17.8193 20H14.4142L13.2597 21.1545C13.1741 21.2402 13.0718 21.3425 12.9743 21.4251C12.8612 21.5209 12.6894 21.6481 12.4523 21.7231ZM12 19.5858L13.5858 18H16.8777C16.4857 16.8238 15.3784 15.9761 14.0736 15.9761H9.92642C8.62165 15.9761 7.51433 16.8238 7.12234 18H10.4142L12 19.5858ZM5.09222 17.9839C5.04861 17.9815 5.00705 17.9786 4.96722 17.9753C4.69125 17.9524 4.58924 17.9135 4.53903 17.8874C4.35638 17.7925 4.20746 17.6436 4.11259 17.461C4.0865 17.4108 4.04764 17.3088 4.02472 17.0328C4.0008 16.7448 4 16.3663 4 15.78V6.22C4 5.63373 4.0008 5.25517 4.02472 4.96722C4.04764 4.69125 4.0865 4.58924 4.11259 4.53903C4.20746 4.35638 4.35638 4.20746 4.53903 4.11259C4.58924 4.0865 4.69125 4.04764 4.96722 4.02472C5.25517 4.0008 5.63373 4 6.22 4H17.78C18.3663 4 18.7448 4.0008 19.0328 4.02472C19.3088 4.04764 19.4108 4.0865 19.461 4.11259C19.6436 4.20746 19.7925 4.35638 19.8874 4.53903C19.9135 4.58924 19.9524 4.69125 19.9753 4.96722C19.9992 5.25517 20 5.63373 20 6.22V15.78C20 16.3663 19.9992 16.7448 19.9753 17.0328C19.9524 17.3088 19.9135 17.4108 19.8874 17.461C19.7925 17.6436 19.6436 17.7925 19.461 17.8874C19.4108 17.9135 19.3088 17.9524 19.0328 17.9753C18.993 17.9786 18.9514 17.9815 18.9078 17.9839C18.4637 15.7132 16.4681 14.0001 14.0736 14.0001H9.92642C7.53186 14.0001 5.53633 15.7132 5.09222 17.9839Z" fill="black"/>
</svg>
