<svg width="24" height="24" viewBox="0 0 24 24" fill="none" xmlns="http://www.w3.org/2000/svg">
<path d="M12.4105 9.08812C12.4455 9.10382 12.4796 9.12154 12.5127 9.14125L19.4964 13.1319C19.9759 13.4059 20.1425 14.0168 19.8685 14.4963C19.5945 14.9758 18.9836 15.1424 18.5041 14.8684L12.0002 11.1519L5.49637 14.8684C5.01685 15.1424 4.406 14.9758 4.13199 14.4963C3.85798 14.0168 4.02458 13.4059 4.50409 13.1319L11.4878 9.14122C11.5209 9.12152 11.555 9.10381 11.59 9.08812C11.7224 9.02838 11.8623 8.99983 12.0006 9C12.1386 8.99992 12.2783 9.02847 12.4105 9.08812Z" fill="black"/>
</svg>
