<svg width="24" height="24" viewBox="0 0 24 24" fill="none" xmlns="http://www.w3.org/2000/svg">
<path fill-rule="evenodd" clip-rule="evenodd" d="M15.75 3H4C3.44772 3 3 3.44772 3 4V20C3 20.5523 3.44772 21 4 21H20C20.5523 21 21 20.5523 21 20V8.25H15.75V3ZM5 19V15.75H8.25V19H5ZM19 10.25V13.75H15.75V10.25H19ZM19 15.75H15.75V19H19V15.75ZM13.75 10.25V13.75H10.25V10.25H13.75ZM13.75 15.75H10.25V19H13.75V15.75ZM8.25 10.25V13.75H5V10.25H8.25ZM8.25 8.25H5V5H8.25V8.25ZM13.75 8.25H10.25V5H13.75V8.25Z" fill="black"/>
<path d="M19.25 6.25C19.25 6.66421 19.5858 7 20 7C20.4142 7 20.75 6.66421 20.75 6.25V4.75H22.25C22.6642 4.75 23 4.41421 23 4C23 3.58579 22.6642 3.25 22.25 3.25H20.75V1.75C20.75 1.33579 20.4142 1 20 1C19.5858 1 19.25 1.33579 19.25 1.75V3.25H17.75C17.3358 3.25 17 3.58579 17 4C17 4.41421 17.3358 4.75 17.75 4.75H19.25V6.25Z" fill="black"/>
</svg>
