<svg width="24" height="24" viewBox="0 0 24 24" fill="none" xmlns="http://www.w3.org/2000/svg">
<path d="M3.25 3.75C3.25 3.47386 3.47386 3.25 3.75 3.25H7.25C7.52614 3.25 7.75 3.47386 7.75 3.75V7.25C7.75 7.52614 7.52614 7.75 7.25 7.75H3.75C3.47386 7.75 3.25 7.52614 3.25 7.25V3.75Z" fill="black"/>
<path d="M3.25 10.25C3.25 9.97386 3.47386 9.75 3.75 9.75H7.25C7.52614 9.75 7.75 9.97386 7.75 10.25V13.75C7.75 14.0261 7.52614 14.25 7.25 14.25H3.75C3.47386 14.25 3.25 14.0261 3.25 13.75V10.25Z" fill="black"/>
<path d="M3.75 16.25C3.47386 16.25 3.25 16.4739 3.25 16.75V20.25C3.25 20.5261 3.47386 20.75 3.75 20.75H7.25C7.52614 20.75 7.75 20.5261 7.75 20.25V16.75C7.75 16.4739 7.52614 16.25 7.25 16.25H3.75Z" fill="black"/>
<path d="M9.75 3.75C9.75 3.47386 9.97386 3.25 10.25 3.25H13.75C14.0261 3.25 14.25 3.47386 14.25 3.75V7.25C14.25 7.52614 14.0261 7.75 13.75 7.75H10.25C9.97386 7.75 9.75 7.52614 9.75 7.25V3.75Z" fill="black"/>
<path d="M10.25 9.75C9.97386 9.75 9.75 9.97386 9.75 10.25V13.75C9.75 14.0261 9.97386 14.25 10.25 14.25H13.75C14.0261 14.25 14.25 14.0261 14.25 13.75V10.25C14.25 9.97386 14.0261 9.75 13.75 9.75H10.25Z" fill="black"/>
<path d="M9.75 16.75C9.75 16.4739 9.97386 16.25 10.25 16.25H13.75C14.0261 16.25 14.25 16.4739 14.25 16.75V20.25C14.25 20.5261 14.0261 20.75 13.75 20.75H10.25C9.97386 20.75 9.75 20.5261 9.75 20.25V16.75Z" fill="black"/>
<path d="M16.25 10.25C16.25 9.97386 16.4739 9.75 16.75 9.75H20.25C20.5261 9.75 20.75 9.97386 20.75 10.25V13.75C20.75 14.0261 20.5261 14.25 20.25 14.25H16.75C16.4739 14.25 16.25 14.0261 16.25 13.75V10.25Z" fill="black"/>
<path d="M16.75 16.25C16.4739 16.25 16.25 16.4739 16.25 16.75V20.25C16.25 20.5261 16.4739 20.75 16.75 20.75H20.25C20.5261 20.75 20.75 20.5261 20.75 20.25V16.75C20.75 16.4739 20.5261 16.25 20.25 16.25H16.75Z" fill="black"/>
<path d="M19.25 6.25C19.25 6.66421 19.5858 7 20 7C20.4142 7 20.75 6.66421 20.75 6.25V4.75H22.25C22.6642 4.75 23 4.41421 23 4C23 3.58579 22.6642 3.25 22.25 3.25H20.75V1.75C20.75 1.33579 20.4142 1 20 1C19.5858 1 19.25 1.33579 19.25 1.75V3.25H17.75C17.3358 3.25 17 3.58579 17 4C17 4.41421 17.3358 4.75 17.75 4.75H19.25V6.25Z" fill="black"/>
</svg>
