<svg width="24" height="24" viewBox="0 0 24 24" fill="none" xmlns="http://www.w3.org/2000/svg">
<path d="M3 21C3 20.4477 3.44772 20 4 20H20C20.5523 20 21 20.4477 21 21C21 21.5523 20.5523 22 20 22H4C3.44772 22 3 21.5523 3 21Z" fill="black"/>
<path d="M16.2071 11.7071C16.5976 11.3166 16.5976 10.6834 16.2071 10.2929C15.8166 9.90237 15.1834 9.90237 14.7929 10.2929L13 12.0858V13C13 13.5523 12.5523 14 12 14C11.4477 14 11 13.5523 11 13V12.0858L9.20711 10.2929C8.81658 9.90237 8.18342 9.90237 7.79289 10.2929C7.40237 10.6834 7.40237 11.3166 7.79289 11.7071L11.2929 15.2071C11.6834 15.5976 12.3166 15.5976 12.7071 15.2071L16.2071 11.7071Z" fill="black"/>
<path fill-rule="evenodd" clip-rule="evenodd" d="M12 2C11.4477 2 11 2.44772 11 3V12.0858L12 13.0858L13 12.0858V3C13 2.44772 12.5523 2 12 2Z" fill="black"/>
<path d="M11 13C11 13.5523 11.4477 14 12 14C12.5523 14 13 13.5523 13 13V12.0858L12 13.0858L11 12.0858V13Z" fill="black"/>
</svg>
