<svg width="24" height="24" viewBox="0 0 24 24" fill="none" xmlns="http://www.w3.org/2000/svg">
<path fill-rule="evenodd" clip-rule="evenodd" d="M10.5317 6.08813C9.22191 8.53027 6.22896 9.62907 4.25195 8.14555C4.12866 8.05303 4.00931 7.95046 3.89457 7.83755C3.69501 7.64118 3.50939 7.41351 3.34114 7.15297C3.30777 7.10131 3.27509 7.04835 3.24312 6.99408C2.8552 6.33567 1.8359 6.74642 2.02262 7.4859L4.92995 19L19.0701 19L21.9774 7.48591C22.1641 6.74642 21.1448 6.33568 20.7569 6.99408C20.7249 7.04835 20.6922 7.10131 20.6589 7.15298C20.4906 7.41351 20.305 7.64118 20.1054 7.83756C19.9907 7.95047 19.8713 8.05303 19.748 8.14555C17.771 9.62907 14.7781 8.53027 13.4683 6.08813L12.7549 4.60824C12.645 4.22736 12.3288 4.02322 12 4C11.6712 4.02322 11.355 4.22736 11.2451 4.60824L10.5317 6.08813ZM12 7.53389C10.9094 9.23325 9.17351 10.4151 7.30097 10.7329C6.49304 10.87 5.66726 10.8415 4.87992 10.6325L6.48772 17L17.5123 17L19.1201 10.6325C18.3327 10.8415 17.507 10.87 16.699 10.7329C14.8265 10.4151 13.0906 9.23325 12 7.53389Z" fill="black"/>
</svg>
