<svg width="24" height="24" viewBox="0 0 24 24" fill="none" xmlns="http://www.w3.org/2000/svg">
<path fill-rule="evenodd" clip-rule="evenodd" d="M8.76671 1.22401C8.93636 0.433956 10.0636 0.433959 10.2333 1.22401L11.0024 4.80563C11.023 4.9018 11.0982 4.97692 11.1943 4.99757L14.776 5.76668C15.566 5.93633 15.566 7.06359 14.7759 7.23325L11.1943 8.00236C11.0982 8.02301 11.023 8.09813 11.0024 8.1943L10.2333 11.7759C10.0636 12.566 8.93636 12.566 8.76671 11.7759L7.9976 8.19429C7.97695 8.09813 7.90183 8.02301 7.80566 8.00236L4.22404 7.23325C3.43399 7.06359 3.43399 5.93633 4.22404 5.76668L7.80566 4.99757C7.90183 4.97692 7.97695 4.9018 7.9976 4.80563L8.76671 1.22401ZM17.2667 10.224C17.4364 9.43396 18.5636 9.43395 18.7333 10.224L19.414 13.394C19.4347 13.4902 19.5098 13.5653 19.6059 13.586L22.7759 14.2667C23.566 14.4363 23.566 15.5636 22.776 15.7332L19.6059 16.414C19.5098 16.4346 19.4347 16.5097 19.414 16.6059L18.7333 19.7759C18.5636 20.566 17.4364 20.566 17.2667 19.7759L16.586 16.6059C16.5653 16.5097 16.4902 16.4346 16.3941 16.414L13.224 15.7332C12.434 15.5636 12.434 14.4363 13.224 14.2667L16.3941 13.586C16.4902 13.5653 16.5653 13.4902 16.586 13.394L17.2667 10.224ZM4.76671 14.224C4.93636 13.434 6.06363 13.434 6.23328 14.224L6.82561 16.9824C6.84626 17.0786 6.92138 17.1537 7.01755 17.1743L9.77595 17.7667C10.566 17.9363 10.566 19.0636 9.77595 19.2332L7.01755 19.8256C6.92138 19.8462 6.84626 19.9214 6.82561 20.0175L6.23328 22.7759C6.06363 23.566 4.93636 23.566 4.76671 22.7759L4.17438 20.0175C4.15373 19.9214 4.07861 19.8462 3.98244 19.8256L1.22404 19.2332C0.433989 19.0636 0.433987 17.9363 1.22404 17.7667L3.98244 17.1743C4.07861 17.1537 4.15373 17.0786 4.17438 16.9824L4.76671 14.224Z" fill="black"/>
</svg>
