<svg width="24" height="24" viewBox="0 0 24 24" fill="none" xmlns="http://www.w3.org/2000/svg">
<path fill-rule="evenodd" clip-rule="evenodd" d="M12 22C17.5228 22 22 17.5228 22 12C22 6.47715 17.5228 2 12 2C6.47715 2 2 6.47715 2 12C2 17.5228 6.47715 22 12 22ZM11.665 16.403C11.7631 16.4758 11.8695 16.5 11.9758 16.5L11.984 16.4919C12.1395 16.4919 12.2867 16.4353 12.3767 16.3707C13.1949 15.7887 14.1439 15.0775 14.9456 14.2127C15.5265 13.5822 16.1646 12.8063 16.4183 11.7879C16.7046 10.6402 16.2219 9.42781 15.232 8.83778C14.2748 8.27201 13.0394 8.42558 12.1395 9.23383L12.0004 9.37123L11.9268 9.30657C11.1332 8.53065 9.99598 8.29626 9.04696 8.70038C8.09793 9.10451 7.47616 10.0987 7.5007 11.1817C7.51706 12.087 7.95067 12.7982 8.27792 13.2589C9.2024 14.5764 10.4541 15.5301 11.665 16.403Z" fill="black"/>
</svg>
