<svg width="24" height="24" viewBox="0 0 24 24" fill="none" xmlns="http://www.w3.org/2000/svg">
<path fill-rule="evenodd" clip-rule="evenodd" d="M8.5 2C6.84315 2 5.5 3.34315 5.5 5V19C5.5 20.6569 6.84315 22 8.5 22H15.5C17.1569 22 18.5 20.6569 18.5 19V5C18.5 3.34315 17.1569 2 15.5 2H8.5ZM7.5 5C7.5 4.44772 7.94772 4 8.5 4H15.5C16.0523 4 16.5 4.44772 16.5 5V19C16.5 19.5523 16.0523 20 15.5 20H8.5C7.94772 20 7.5 19.5523 7.5 19V5Z" fill="black"/>
<path fill-rule="evenodd" clip-rule="evenodd" d="M23 7.17541C23 5.79793 22.0041 4.62235 20.6454 4.39589C20.0458 4.29596 19.5 4.75833 19.5 5.36618V5.52896C19.5 5.91793 19.7489 6.26326 20.1179 6.38627L20.3138 6.45156C20.7236 6.58816 21 6.97166 21 7.40361V16.5966C21 17.0286 20.7236 17.4121 20.3138 17.5486L20.1179 17.6139C19.7489 17.7369 19.5 18.0823 19.5 18.4713V18.634C19.5 19.2419 20.0458 19.7043 20.6454 19.6043C22.0041 19.3779 23 18.2023 23 16.8248V7.17541Z" fill="black"/>
<path fill-rule="evenodd" clip-rule="evenodd" d="M0.75 7.17541C0.75 5.79793 1.74587 4.62235 3.10461 4.39589C3.70419 4.29596 4.25 4.75833 4.25 5.36618V5.52896C4.25 5.91793 4.0011 6.26326 3.63209 6.38627L3.4362 6.45156C3.02641 6.58816 2.75 6.97166 2.75 7.40361V16.5966C2.75 17.0286 3.02641 17.4121 3.4362 17.5487L3.63209 17.6139C4.0011 17.737 4.25 18.0823 4.25 18.4713V18.634C4.25 19.2419 3.70419 19.7043 3.10461 19.6043C1.74587 19.3779 0.75 18.2023 0.75 16.8248V7.17541Z" fill="black"/>
</svg>
