<svg width="24" height="24" viewBox="0 0 24 24" fill="none" xmlns="http://www.w3.org/2000/svg">
<path fill-rule="evenodd" clip-rule="evenodd" d="M9.97182 4.3536C12.6434 1.6821 16.9748 1.6821 19.6463 4.3536C22.3179 7.0251 22.3179 11.3565 19.6463 14.0279L18.8438 14.8305C18.3885 15.2858 17.6504 15.2858 17.1951 14.8305C16.7398 14.3753 16.7398 13.6371 17.1951 13.1819L17.9977 12.3793C19.7587 10.6183 19.7587 7.76321 17.9977 6.00223C16.2367 4.24124 13.3815 4.24124 11.6205 6.00223L10.8179 6.8048C10.3626 7.26006 9.62449 7.26006 9.16923 6.8048C8.71397 6.34954 8.71397 5.61143 9.16923 5.15617L9.97182 4.3536ZM14.329 7.90816C14.7843 7.45291 15.5224 7.45291 15.9777 7.90816C16.4329 8.36342 16.4329 9.10154 15.9777 9.5568L9.55697 15.9774C9.10171 16.4326 8.36358 16.4326 7.90832 15.9774C7.45305 15.5221 7.45305 14.784 7.90832 14.3287L14.329 7.90816ZM5.15625 9.16943C5.61152 8.71418 6.34965 8.71418 6.80491 9.16943C7.26018 9.62469 7.26018 10.3628 6.80491 10.8181L6.00232 11.6206C4.2413 13.3816 4.2413 16.2367 6.00232 17.9977C7.76334 19.7587 10.6185 19.7587 12.3795 17.9977L13.1821 17.1952C13.6374 16.7399 14.3755 16.7399 14.8308 17.1952C15.286 17.6504 15.286 18.3885 14.8308 18.8438L14.0282 19.6464C11.3566 22.3179 7.02522 22.3179 4.35367 19.6464C1.68212 16.9749 1.68212 12.6435 4.35367 9.972L5.15625 9.16943Z" fill="black"/>
</svg>
