<svg width="24" height="24" viewBox="0 0 24 24" fill="none" xmlns="http://www.w3.org/2000/svg">
<path d="M19 9.83511H16.8664V8.37234C16.8664 4.82269 15.2491 3.04787 12.0146 3.04787C10.5532 3.04787 9.39388 3.51596 8.53653 4.45213C7.69868 5.36879 7.27975 6.71454 7.27975 8.48936V15.4814C7.27975 17.1392 7.67919 18.4654 8.47808 19.4601C9.27697 20.4548 10.4266 20.9521 11.9269 20.9521H12.1023C13.5247 20.9521 14.6256 20.5718 15.405 19.8112C16.2039 19.07 16.6033 18.0949 16.6033 16.8856V15.6277C16.6033 14.945 16.5254 14.3892 16.3695 13.9601C16.2331 13.5115 15.9993 13.1702 15.6681 12.9362V13.9309C15.6681 15.2961 15.3466 16.3493 14.7035 17.0904C14.08 17.8121 13.1935 18.1729 12.0438 18.1729C11.0696 18.1729 10.2512 17.8511 9.58873 17.2074C8.92624 16.5443 8.59499 15.6667 8.59499 14.5745C8.59499 13.4433 8.91649 12.5461 9.5595 11.883C10.222 11.2199 11.1475 10.8883 12.3361 10.8883H13.739V9.68883C13.739 8.36259 13.2129 7.69947 12.1608 7.69947C11.6541 7.69947 11.2742 7.86525 11.0209 8.19681C10.7676 8.52837 10.6409 8.94769 10.6409 9.45479V10.0984H8.77035V9.5133C8.77035 8.30408 9.09186 7.38741 9.73486 6.7633C10.3779 6.13918 11.1865 5.82713 12.1608 5.82713C14.499 5.82713 15.6681 7.07535 15.6681 9.57181V11.0931C17.6945 11.6197 18.7077 13.2482 18.7077 15.9787V16.7394C18.7077 18.7677 18.0842 20.3183 16.8372 21.391C15.5901 22.4636 13.9923 23 12.0438 23H11.9269C10.6019 23 9.41336 22.7074 8.36117 22.1223C7.32846 21.5567 6.51009 20.7181 5.90605 19.6064C5.30202 18.4947 5 17.1782 5 15.6569V8.37234C5 6.81206 5.30202 5.47606 5.90605 4.36436C6.52958 3.25266 7.36743 2.41401 8.41962 1.8484C9.47182 1.2828 10.6701 1 12.0146 1C14.2164 1 15.9311 1.63387 17.1587 2.9016C18.3862 4.16933 19 5.99291 19 8.37234V9.83511ZM11.9854 16.3005C12.6089 16.3005 13.0571 16.1055 13.3299 15.7154C13.6026 15.3059 13.739 14.6915 13.739 13.8723V12.5266H12.3653C11.7613 12.5266 11.2937 12.6924 10.9624 13.0239C10.6312 13.3555 10.4656 13.8431 10.4656 14.4867C10.4656 15.0328 10.6117 15.4716 10.904 15.8032C11.1962 16.1348 11.5567 16.3005 11.9854 16.3005Z" fill="black"/>
</svg>
