<svg width="24" height="24" viewBox="0 0 24 24" fill="none" xmlns="http://www.w3.org/2000/svg">
<path fill-rule="evenodd" clip-rule="evenodd" d="M7.72224 4.39999L20 2.5L20 16.2748C20 18.1111 18.52 19.5998 16.6944 19.5998C14.8688 19.5998 13.3889 18.1111 13.3889 16.2748C13.3889 14.4385 14.8688 12.9498 16.6944 12.9498C17.2014 12.9498 17.6818 13.0646 18.1111 13.2698V8.49227L9.61112 9.80765V18.1751C9.61112 20.0114 8.13116 21.5001 6.30556 21.5001C4.47995 21.5001 3 20.0114 3 18.1751C3 16.3387 4.47995 14.8501 6.30556 14.8501C6.81253 14.8501 7.29286 14.9649 7.72223 15.1701L7.72224 4.39999ZM9.72224 7.76665V6.11429L18 4.83331V6.48566L9.72224 7.76665ZM6.30556 19.5001C7.01556 19.5001 7.61111 18.9179 7.61111 18.1751C7.61111 17.4322 7.01556 16.8501 6.30556 16.8501C5.59555 16.8501 5 17.4322 5 18.1751C5 18.9179 5.59555 19.5001 6.30556 19.5001ZM16.6944 17.5998C17.4044 17.5998 18 17.0176 18 16.2748C18 15.532 17.4044 14.9498 16.6944 14.9498C15.9844 14.9498 15.3889 15.532 15.3889 16.2748C15.3889 17.0176 15.9844 17.5998 16.6944 17.5998Z" fill="black"/>
</svg>
