<svg width="24" height="24" viewBox="0 0 24 24" fill="none" xmlns="http://www.w3.org/2000/svg">
<path d="M20.6853 11.3912C21.1049 11.7948 21.1049 12.4491 20.6853 12.8527C20.6527 12.884 20.6186 12.9129 20.5831 12.9393C20.5575 12.9705 20.5297 13.0005 20.4998 13.0293L14.0881 19.1972C13.6685 19.6008 12.9881 19.6009 12.5684 19.1974C12.1487 18.7939 12.1486 18.1396 12.5682 17.7359L18.4049 12.1211L12.3147 6.26416C11.8951 5.86058 11.8951 5.20626 12.3147 4.80268C12.7344 4.39911 13.4148 4.39911 13.8344 4.80268L20.6853 11.3912Z" fill="black"/>
<path d="M2 12C2 11.4477 2.44772 11 3 11H18C18.5523 11 19 11.4477 19 12C19 12.5523 18.5523 13 18 13H3C2.44772 13 2 12.5523 2 12Z" fill="black"/>
</svg>
