<svg width="24" height="24" viewBox="0 0 24 24" fill="none" xmlns="http://www.w3.org/2000/svg">
<path d="M8.53544 18C8.51209 18.1633 8.5 18.3302 8.5 18.5C8.5 20.433 10.067 22 12 22C13.933 22 15.5 20.433 15.5 18.5C15.5 18.3302 15.4879 18.1633 15.4646 18H13.4146C13.4699 18.1564 13.5 18.3247 13.5 18.5C13.5 19.3284 12.8284 20 12 20C11.1716 20 10.5 19.3284 10.5 18.5C10.5 18.3247 10.5301 18.1564 10.5854 18H8.53544Z" fill="black"/>
<path d="M12 19H17.0019C18.9349 19 20.502 17.433 20.502 15.5C20.502 14.0809 19.7192 13.3003 18.8231 12.4067L18.7261 12.3099C18.7192 12.2971 18.6974 12.2548 18.6707 12.1658C18.6261 12.017 18.5875 11.8058 18.5595 11.5255C18.503 10.9604 18.502 10.2648 18.502 9.49998C18.502 7.78573 17.9298 6.51361 17.2091 5.79288C16.3517 4.9355 15.5689 4.61361 15.0037 4.44401C14.7446 4.36627 14.6083 4.19215 14.4161 3.99992C13.7758 3.35962 12.9074 2.99997 12.0019 3L12 3V5.00165C12.0061 5.00041 12.0066 5 12.002 5C12.3771 4.99999 12.7367 5.14894 13.0019 5.41414C13.1154 5.52769 13.1774 5.662 13.2792 5.78551C13.457 6.00121 13.6708 6.10932 13.7988 6.16398C13.9281 6.21926 14.0619 6.25708 14.1486 6.28119C14.1817 6.29039 14.2118 6.29858 14.2404 6.30639C14.304 6.32372 14.3609 6.33923 14.4289 6.35965C14.7566 6.45795 15.2238 6.63606 15.7948 7.20709C16.0741 7.48636 16.502 8.21424 16.502 9.49998V9.53201C16.5019 10.2585 16.5019 11.0495 16.5694 11.7245C16.6039 12.0691 16.6591 12.4205 16.7551 12.7405C16.8474 13.0484 17.003 13.4153 17.2948 13.7071C18.3522 14.7644 18.502 14.979 18.502 15.5C18.502 16.3284 17.8304 17 17.0019 17H12V19Z" fill="black"/>
<path d="M12.002 19H7.00001C5.06701 19 3.5 17.433 3.5 15.5C3.5 14.0809 4.28273 13.3003 5.17882 12.4067L5.27585 12.3099C5.2828 12.2971 5.30451 12.2548 5.33124 12.1658C5.37588 12.017 5.41443 11.8058 5.44246 11.5255C5.49898 10.9604 5.5 10.2648 5.5 9.49998C5.5 7.78573 6.07216 6.51361 6.79289 5.79288C7.65027 4.9355 8.43302 4.61361 8.99828 4.44401C9.25738 4.36627 9.39363 4.19215 9.58585 3.99992C10.2262 3.35962 11.0945 2.99997 12 3L12.0019 3L12.002 5.00165C11.9959 5.00041 11.9954 5 12 5C11.6249 4.99999 11.2653 5.14894 11.0001 5.41414C10.8865 5.52769 10.8246 5.662 10.7228 5.78551C10.5449 6.00121 10.3311 6.10932 10.2032 6.16398C10.0739 6.21926 9.9401 6.25708 9.85331 6.28119C9.82022 6.29039 9.79017 6.29858 9.76151 6.30639C9.69796 6.32372 9.64108 6.33923 9.57303 6.35965C9.24539 6.45795 8.77814 6.63606 8.20711 7.20709C7.92784 7.48636 7.5 8.21424 7.5 9.49998V9.53201C7.50002 10.2585 7.50003 11.0495 7.43254 11.7245C7.39807 12.0691 7.34287 12.4205 7.24689 12.7405C7.15452 13.0484 6.99893 13.4153 6.70711 13.7071C5.64977 14.7644 5.5 14.979 5.5 15.5C5.5 16.3284 6.17158 17 7.00001 17H12.002V19Z" fill="black"/>
<path fill-rule="evenodd" clip-rule="evenodd" d="M8.8636 11.3636C9.21507 11.0121 9.78492 11.0121 10.1364 11.3636L11.25 12.4772L13.8636 9.8636C14.2151 9.51213 14.7849 9.51213 15.1364 9.8636C15.4879 10.2151 15.4879 10.7849 15.1364 11.1364L11.8864 14.3864C11.5349 14.7379 10.9651 14.7379 10.6136 14.3864L8.8636 12.6364C8.51213 12.2849 8.51213 11.7151 8.8636 11.3636Z" fill="black"/>
</svg>
