<svg width="24" height="24" viewBox="0 0 24 24" fill="none" xmlns="http://www.w3.org/2000/svg">
<path fill-rule="evenodd" clip-rule="evenodd" d="M10.6 8.74998C10.6 6.59607 12.3461 4.84998 14.5 4.84998C16.6539 4.84998 18.4 6.59607 18.4 8.74998C18.4 10.9039 16.6539 12.65 14.5 12.65C12.3461 12.65 10.6 10.9039 10.6 8.74998ZM14.5 6.64998C13.3402 6.64998 12.4 7.59018 12.4 8.74998C12.4 9.90977 13.3402 10.85 14.5 10.85C15.6598 10.85 16.6 9.90977 16.6 8.74998C16.6 7.59018 15.6598 6.64998 14.5 6.64998ZM7.48861 9.48858C7.84008 9.13711 8.40993 9.13711 8.7614 9.48858C9.11287 9.84005 9.11287 10.4099 8.7614 10.7614L5.0114 14.5114C4.65993 14.8628 4.09008 14.8628 3.73861 14.5114L1.86361 12.6364C1.51214 12.2849 1.51214 11.7151 1.86361 11.3636C2.21508 11.0121 2.78493 11.0121 3.1364 11.3636L4.37501 12.6022L7.48861 9.48858ZM7.85001 18.4091C7.85001 15.615 10.115 13.35 12.9091 13.35H16.0909C18.885 13.35 21.15 15.615 21.15 18.4091V18.6818C21.15 19.2165 20.7165 19.65 20.1818 19.65C19.6471 19.65 19.2136 19.2165 19.2136 18.6818V18.4091C19.2136 16.6844 17.8156 15.2863 16.0909 15.2863H12.9091C11.1845 15.2863 9.78637 16.6844 9.78637 18.4091V18.6818C9.78637 19.2165 9.3529 19.65 8.81819 19.65C8.28348 19.65 7.85001 19.2165 7.85001 18.6818V18.4091Z" fill="black"/>
</svg>
