<svg width="24" height="24" viewBox="0 0 24 24" fill="none" xmlns="http://www.w3.org/2000/svg">
<path fill-rule="evenodd" clip-rule="evenodd" d="M9 6C6.92893 6 5.25 7.67893 5.25 9.75C5.25 11.8211 6.92893 13.5 9 13.5C11.0711 13.5 12.75 11.8211 12.75 9.75C12.75 7.67893 11.0711 6 9 6ZM6.75 9.75C6.75 8.50736 7.75736 7.5 9 7.5C10.2426 7.5 11.25 8.50736 11.25 9.75C11.25 10.9926 10.2426 12 9 12C7.75736 12 6.75 10.9926 6.75 9.75Z" fill="black"/>
<path d="M2.5 19.1591C2.5 16.4479 4.69788 14.25 7.40909 14.25H10.5909C13.3021 14.25 15.5 16.4479 15.5 19.1591V19.4318C15.5 19.8837 15.1337 20.25 14.6818 20.25C14.2299 20.25 13.8636 19.8837 13.8636 19.4318V19.1591C13.8636 17.3516 12.3984 15.8864 10.5909 15.8864H7.40909C5.60161 15.8864 4.13636 17.3516 4.13636 19.1591V19.4318C4.13636 19.8837 3.77005 20.25 3.31818 20.25C2.86631 20.25 2.5 19.8837 2.5 19.4318V19.1591Z" fill="black"/>
<path d="M13.2144 5.88077C13.627 5.34381 14.2732 5 15 5C16.2426 5 17.25 6.00736 17.25 7.25C17.25 8.49264 16.2426 9.5 15 9.5C14.9101 9.5 14.8218 9.49477 14.7352 9.48465C14.3238 9.43659 13.9513 9.73115 13.9032 10.1426C13.8552 10.554 14.1497 10.9265 14.5611 10.9745C14.7054 10.9914 14.8518 11 15 11C17.0711 11 18.75 9.32107 18.75 7.25C18.75 5.17893 17.0711 3.5 15 3.5C13.7875 3.5 12.7092 4.07631 12.0249 4.96686C11.7726 5.29532 11.8343 5.76617 12.1627 6.01854C12.4912 6.2709 12.962 6.20922 13.2144 5.88077Z" fill="black"/>
<path d="M14.5 12.25L16.591 12.25C19.3022 12.25 21.5001 14.4479 21.5001 17.1591V17.4318C21.5001 17.8837 21.1338 18.25 20.6819 18.25C20.23 18.25 19.8637 17.8837 19.8637 17.4318V17.1591C19.8637 15.3516 18.3985 13.8864 16.591 13.8864H14.5C13 13.8864 13.0001 12.25 14.5 12.25Z" fill="black"/>
</svg>
