<svg width="24" height="24" viewBox="0 0 24 24" fill="none" xmlns="http://www.w3.org/2000/svg">
<circle cx="12" cy="12" r="10.25" stroke="black" stroke-width="1.5"/>
<path d="M11.5516 7.40849C11.735 7.03687 12.265 7.03687 12.4484 7.40849L13.5001 9.53948C13.5729 9.68705 13.7137 9.78934 13.8765 9.813L16.2282 10.1547C16.6383 10.2143 16.8021 10.7183 16.5053 11.0076L14.8036 12.6663C14.6858 12.7812 14.632 12.9467 14.6598 13.1089L15.0616 15.4511C15.1316 15.8595 14.7029 16.171 14.3361 15.9782L12.2327 14.8723C12.087 14.7957 11.913 14.7957 11.7673 14.8723L9.66392 15.9782C9.2971 16.171 8.86839 15.8595 8.93844 15.4511L9.34016 13.1089C9.36798 12.9467 9.3142 12.7812 9.19636 12.6663L7.49466 11.0076C7.19791 10.7183 7.36166 10.2143 7.77177 10.1547L10.1235 9.813C10.2863 9.78934 10.4271 9.68705 10.4999 9.53948L11.5516 7.40849Z" fill="black"/>
</svg>
