<svg width="24" height="24" viewBox="0 0 24 24" fill="none" xmlns="http://www.w3.org/2000/svg">
<path d="M11.446 2.33196C11.651 1.83918 12.349 1.83918 12.554 2.33196L14.901 7.97496C14.9875 8.1827 15.1828 8.32464 15.4071 8.34262L21.4992 8.83102C22.0312 8.87367 22.2469 9.53758 21.8416 9.88478L17.2 13.8607C17.0292 14.0071 16.9545 14.2368 17.0068 14.4556L18.4248 20.4005C18.5486 20.9196 17.9839 21.3299 17.5284 21.0517L12.3128 17.866C12.1207 17.7487 11.8793 17.7487 11.6872 17.866L6.47156 21.0517C6.0161 21.3299 5.45135 20.9196 5.57519 20.4005L6.99325 14.4556C7.04545 14.2368 6.97083 14.0071 6.79996 13.8607L2.15842 9.88478C1.7531 9.53758 1.96882 8.87367 2.50081 8.83102L8.59291 8.34262C8.81718 8.32464 9.01255 8.1827 9.09895 7.97496L11.446 2.33196Z" fill="black"/>
</svg>
