<svg width="24" height="24" viewBox="0 0 24 24" fill="none" xmlns="http://www.w3.org/2000/svg">
<path d="M16.5222 20C15.6343 20 14.9148 19.7154 14.3637 19.1461C13.8279 18.5768 13.56 17.8352 13.56 16.9213C13.56 16.0374 13.8049 15.3408 14.2948 14.8314C14.7847 14.3071 15.5042 13.9101 16.4533 13.6404L18.1067 13.1685C18.5047 13.0637 18.7879 12.9213 18.9563 12.7416C19.1247 12.5618 19.2089 12.2921 19.2089 11.9326C19.2089 11.4382 19.0481 11.0412 18.7267 10.7415C18.4052 10.4419 17.9536 10.2921 17.3718 10.2921C16.836 10.2921 16.3997 10.4494 16.0629 10.764C15.7415 11.0636 15.5807 11.4906 15.5807 12.0449V12.4719H13.7896V12.0449C13.7896 11.0262 14.1111 10.2172 14.7541 9.61795C15.4123 9.0187 16.2849 8.71907 17.3718 8.71907C18.5353 8.71907 19.4309 9.00372 20.0585 9.57301C20.6862 10.1423 21 10.9588 21 12.0225V19.7303H19.2548V18.0899C19.0864 18.6891 18.7573 19.161 18.2674 19.5056C17.7775 19.8352 17.1958 20 16.5222 20ZM16.9355 18.427C17.7316 18.427 18.3057 18.1498 18.6578 17.5955C19.0252 17.0412 19.2089 16.3446 19.2089 15.5056V14.1573C19.0864 14.2921 18.9333 14.4045 18.7496 14.4944C18.5659 14.5693 18.3133 14.6517 17.9918 14.7416L16.9585 15.0337C15.8869 15.3333 15.3511 15.9401 15.3511 16.8539C15.3511 17.3333 15.4889 17.7154 15.7644 18C16.0553 18.2846 16.4457 18.427 16.9355 18.427Z" fill="black"/>
<path d="M12.92 19.7304H11.0141L10.2563 16.3371H5.68668L4.9289 19.7304H3L6.72001 4H9.20002L12.92 19.7304ZM7.96002 6.11237L6.07705 14.5843H9.86595L7.96002 6.11237Z" fill="black"/>
</svg>
