<svg width="32" height="32" viewBox="0 0 32 32" fill="none" xmlns="http://www.w3.org/2000/svg">
<path fill-rule="evenodd" clip-rule="evenodd" d="M16 6.33337C10.6613 6.33337 6.33334 10.6613 6.33334 16C6.33334 21.3388 10.6613 25.6667 16 25.6667C17.8135 25.6667 19.5076 25.1683 20.956 24.3015C21.1883 24.1625 21.4669 24.1236 21.7283 24.1936L25.1036 25.098L24.1985 21.7202C24.1285 21.459 24.1673 21.1807 24.3059 20.9486C25.1699 19.5018 25.6667 17.8105 25.6667 16C25.6667 10.6613 21.3388 6.33337 16 6.33337ZM4.33334 16C4.33334 9.55672 9.55669 4.33337 16 4.33337C22.4433 4.33337 27.6667 9.55672 27.6667 16C27.6667 18.0278 27.1485 19.9372 26.2369 21.6003L27.4837 26.2534C27.5762 26.5985 27.4776 26.9667 27.2249 27.2194C26.9723 27.472 26.6041 27.5706 26.259 27.4782L21.609 26.2322C19.9438 27.1468 18.0313 27.6667 16 27.6667C9.55669 27.6667 4.33334 22.4434 4.33334 16Z" fill="black"/>
</svg>
