<svg width="32" height="32" viewBox="0 0 32 32" fill="none" xmlns="http://www.w3.org/2000/svg">
<path d="M15.8944 27C15.5672 27 15.349 26.8899 15.0218 26.7798C11.7494 24.3571 8.47707 21.7143 5.96826 18.0803C5.20471 16.7589 4.00484 14.7768 4.00484 12.3541C3.89576 9.38091 5.64102 6.62793 8.14983 5.52674C10.6586 4.42554 13.7128 5.08626 15.8944 7.17853L16.0035 7.39877C16.1126 7.28865 16.2216 7.17853 16.3307 7.06841C18.7305 4.86602 22.0028 4.42554 24.6207 5.96721C27.2386 7.619 28.5475 10.9226 27.784 14.116C27.1295 16.869 25.3843 19.0714 23.8572 20.8333C21.6756 23.2559 19.1668 25.128 16.9852 26.7798C16.767 26.8899 16.3307 27 15.8944 27Z" fill="black"/>
</svg>
