<svg width="32" height="32" viewBox="0 0 32 32" fill="none" xmlns="http://www.w3.org/2000/svg">
<path d="M29 19L22.5 20V25.6684C22.2727 25.5604 22.0184 25.5 21.75 25.5C20.7835 25.5 20 26.2835 20 27.25C20 28.2165 20.7835 29 21.75 29C22.7165 29 23.5 28.2165 23.5 27.25V22.8462L28 22.1538V24.6684C27.7727 24.5604 27.5184 24.5 27.25 24.5C26.2835 24.5 25.5 25.2835 25.5 26.25C25.5 27.2165 26.2835 28 27.25 28C28.2165 28 29 27.2165 29 26.25V19Z" fill="black"/>
<path d="M9 4H20C22.7614 4 25 6.23858 25 9V13.5771C24.9999 14.6391 24.1391 15.4999 23.0771 15.5C18.8925 15.5 15.5 18.8925 15.5 23.0771C15.4999 24.1391 14.6391 24.9999 13.5771 25H9C6.23858 25 4 22.7614 4 20V9C4 6.23858 6.23858 4 9 4Z" stroke="black" stroke-width="2"/>
</svg>
